<?xml version="1.0" encoding="UTF-8"?><svg id="Layer_1" xmlns="http://www.w3.org/2000/svg" viewBox="0 0 177.87 167.13"><defs><style>.cls-1{fill:#00b0e2;}.cls-2{fill:#005789;stroke:#005789;stroke-miterlimit:10;}</style></defs><path class="cls-2" d="m86.88,52.96h-6.1v-.12c0-2.61-1.53-4.97-3.91-6.04l-11.2-5.03c-1.73-.78-3.7-.78-5.43,0l-11.2,5.03c-2.38,1.07-3.91,3.44-3.91,6.04v13.91c-.09.05-.18.1-.26.16-.88.6-1.46,1.54-1.6,2.6-.3,2.08,1.15,4.01,3.24,4.31.18.03.36.04.54.04.11,0,.21,0,.32-.02h0c0,5.32,2.84,10.23,7.45,12.88l-.03,5.73c-1.8-.03-3.53.71-4.74,2.04-.05.06-.1.12-.14.19h-2.63c-5.05,0-9.14,4.1-9.15,9.15v17.47c0,.61.49,1.1,1.1,1.1h46.01c.61,0,1.1-.49,1.1-1.1v-17.47c0-5.05-4.1-9.14-9.15-9.15h-2.44c-.05-.12-.12-.23-.21-.33-1.26-1.34-3.04-2.07-4.87-1.98v-5.64c4.59-2.65,7.43-7.56,7.43-12.88h0c.1,0,.19,0,.29,0,2.11,0,3.81-1.7,3.81-3.81,0-.18-.01-.36-.04-.54-.15-1.05-.73-1.99-1.6-2.6-.13-.09-.26-.16-.39-.23v-7.06c2.94-.52,5.81-1.38,8.55-2.56,1.09-.47,1.59-1.72,1.12-2.81-.34-.79-1.11-1.3-1.97-1.3h0Zm-10.92-4.14c1.59.71,2.61,2.29,2.61,4.03v.12h-6.05c-.21-1.89-1.06-3.66-2.41-5l-3.22-3.22,9.08,4.08Zm-13.43-5.31l6.01,6.01c.94.93,1.55,2.14,1.74,3.44h-3.29c-4.21,0-8.39.8-12.3,2.36v-1.42c0-1.65.65-3.22,1.82-4.38l6.01-6.01Zm-15.16,28.11c-.31.06-.64.03-.93-.09-.82-.34-1.21-1.27-.87-2.09.12-.29.32-.53.57-.71.37-.24.85-.25,1.23-.03v2.91Zm-.02-13.59v-5.18c0-1.74,1.02-3.32,2.61-4.03l7.53-3.38-2.52,2.52c-1.58,1.57-2.47,3.71-2.46,5.94v2.34l-4.24,1.78h-.9Zm29.85,38.86c3.83,0,6.93,3.11,6.94,6.94v16.37h-6.99v-6.26c0-.61-.49-1.1-1.1-1.1s-1.1.49-1.1,1.1v6.26h-25.4v-6.26c0-.61-.49-1.1-1.1-1.1s-1.1.49-1.1,1.1v6.26h-6.99v-16.37c0-3.83,3.11-6.93,6.94-6.94h3.81c3.16,2.53,7.09,3.9,11.14,3.9h.1c4.01-.02,7.9-1.39,11.04-3.9h3.83Zm-5.17-1.75c-2.76,2.21-6.18,3.42-9.71,3.44h-.09c-3.5,0-6.9-1.17-9.66-3.33,1.17-.71,2.63-.79,3.86-.19,3.72,1.75,8.03,1.72,11.73-.07,1.23-.61,2.69-.55,3.87.15h0Zm-15.07-2.26l.04-5.11c3.37,1.27,7.09,1.27,10.47,0l.04,5.1c-.11.05-.22.09-.32.14-3.1,1.5-6.7,1.52-9.82.06-.14-.07-.28-.12-.42-.18h0Zm17.94-19.03c0,6.99-5.67,12.66-12.66,12.66-6.99,0-12.66-5.67-12.66-12.66v-13.62h22.72c.87,0,1.74-.03,2.6-.09v13.71Zm3.11-2.32c-.29.12-.6.15-.9.09v-2.94c.38-.21.84-.19,1.21.05.73.5.91,1.5.41,2.23-.18.25-.42.45-.71.57h0Zm-5.71-13.51h-18.34l1.05-.44c3.8-1.6,7.87-2.42,11.99-2.41h19.54c-4.51,1.89-9.36,2.86-14.25,2.86h0Z"/><path class="cls-2" d="m127.35,95.68c-.46-1.75-1.41-3.81-3.27-6.01.2-.66.24-1.55-.16-2.74-.12-.37-.3-.71-.54-1.02,1.04-.89,1.92-1.97,2.57-3.17,1.13-2.1,1.97-5.45-.09-9.78.99-.85,1.49-2.14,1.31-3.44-.15-1.04-.71-1.97-1.57-2.57.03,0,.07,0,.1,0,.05,0,.1-.01.15-.03l2.91-.73c.59-.15.95-.75.8-1.34-.08-.31-.29-.58-.58-.72-1.22-.66-2.37-1.44-3.44-2.33v-2.46c0-7.67-6.22-13.89-13.89-13.89-.29,0-.58,0-.86.03h-3.66c0-1.23-.99-2.22-2.21-2.22h-2.02c-6.54,0-11.83,5.3-11.85,11.84v7.25h-3.39c-.61,0-1.1.49-1.1,1.1s.49,1.1,1.1,1.1h3.39v2.27c-.06.03-.12.07-.17.11-.88.6-1.46,1.54-1.6,2.6-.21,1.5.49,2.98,1.77,3.78v4.22s0,.03,0,.05c0,.13.01.27.02.4.36,4.56,3.8,8.43,8.36,9.41l1.38.3v4.43c0,1.42-1.15,2.58-2.58,2.58h-4.96c-5.05,0-9.14,4.1-9.15,9.15v17.47c0,.61.49,1.1,1.1,1.1h46.01c.61,0,1.1-.49,1.1-1.1v-17.47c0-3.44-1.93-6.6-5-8.15Zm-5.88-11.08c-.34-.1-.68-.15-1.03-.15-.94,0-1.84.37-2.5,1.03-.11.11-.21.22-.3.34-.27.07-.55.12-.82.16,3.94-2.78,6.28-7.31,6.28-12.13h0c.1,0,.19,0,.29,0,.15,0,.3-.01.44-.03,3.21,6.66-1.79,10.36-2.36,10.76Zm.4,3.18c-.28-.13-.57-.24-.87-.32h0c-.61-.16-1.25-.11-1.83.14.17-.56.68-.94,1.27-.94.62,0,1.18.38,1.38.97.02.05.03.1.05.15h0Zm-4.96,2.28c-.5.84-.89,1.74-1.17,2.67-.05-.2-.08-.41-.08-.62v-3.87c.14.01.29.02.46.02.26,0,.53-.02.79-.05v1.85Zm7.1-18.52c-.29.12-.6.15-.9.09v-2.94c.38-.21.84-.19,1.2.05.73.5.91,1.5.4,2.23-.18.25-.42.45-.71.57h0Zm-30.74-16.45c.01-5.32,4.32-9.62,9.64-9.63h2.03c0,1.21.97,2.19,2.18,2.21h.65s3.07,0,3.07,0c.02,0,.05,0,.07,0,6.44-.42,12,4.46,12.42,10.9.02.25.02.51.02.76v.29c-.92-1.06-1.67-2.26-2.22-3.56-.22-.57-.87-.85-1.43-.62s-.85.87-.62,1.43c0,.01,0,.02.01.03,1.52,3.69,4.5,6.3,6.61,7.77l-.28.07c-1.01.11-2.03.08-3.04-.1-.1-.03-.2-.05-.3-.06-4.02-.88-5.01-4.17-5.06-4.34,0-.02-.01-.04-.02-.07-1.64-4.83-4.81-6.5-7.18-7.06-.85-.19-1.71-.29-2.58-.27.08-.35.12-.7.12-1.05v-2.37c0-.61-.49-1.1-1.1-1.1s-1.1.49-1.1,1.1v2.37c0,1.34-1.09,2.42-2.42,2.42-2.56,0-4.63,2.07-4.63,4.63v1.05c0,1.34-1.08,2.42-2.42,2.42h-2.4v-7.25Zm0,9.46h.11v1.85s-.07-.01-.11-.02v-1.83Zm-.53,7.08c-.13-.08-.28-.13-.43-.15-.78-.42-1.07-1.39-.66-2.17.12-.22.29-.42.5-.56.37-.24.85-.25,1.23-.03v2.91c-.21.04-.43.04-.64,0h0Zm.54,6.17c0-.1-.01-.2-.02-.3v-3.63s.08,0,.12,0h0c0,4.02,1.62,7.86,4.5,10.65-2.57-1.29-4.37-3.83-4.6-6.71h0Zm2.31-3.93v-9.32h.09c2.56,0,4.63-2.07,4.63-4.63v-1.05c0-1.34,1.08-2.42,2.42-2.42,1.17,0,2.3-.44,3.15-1.24,1.3-.24,6.78-.86,9.01,5.68.42,1.28,1.14,2.45,2.1,3.4,1.09,1.09,2.44,1.88,3.92,2.3v7.28c0,6.99-5.67,12.66-12.66,12.66-6.99,0-12.66-5.67-12.66-12.66h0s0,0,0,0Zm7.45,18.25v-4.33c3.36,1.27,7.07,1.27,10.43,0v4.33c0,1.27.5,2.49,1.4,3.38.13.13.26.24.4.36-.02,1.22.17,2.44.56,3.59-.49,2.61-1.35,5.14-2.55,7.52-1.42,2.78-4.82,3.88-7.59,2.46-1.08-.55-1.95-1.43-2.49-2.51-1.64-3.26-2.64-6.82-2.93-10.46,1.69-.79,2.76-2.48,2.77-4.34h0Zm-9.64,20.32c-1.01,2.47-1.12,5.22-.32,7.77h-6.73v-16.37c0-3.83,3.11-6.93,6.94-6.94h.11v15.54Zm27.68,7.77h-25.66c-.91-2.29-.88-4.85.1-7.11.06-.14.09-.29.09-.44v-15.76h2.49c.34,3.83,1.4,7.57,3.13,11,1.94,3.88,6.65,5.46,10.53,3.52,1.51-.75,2.73-1.97,3.49-3.47.88-1.75,1.59-3.57,2.12-5.45.3.42.63.82.99,1.19,1.56,1.66,1.24,3.1.69,4.03-.31.52-.14,1.2.38,1.51.36.21.81.21,1.16-.02.1-.07.2-.13.3-.2v3.64c0,.15.03.3.09.44.97,2.26,1.01,4.82.1,7.11h0Zm.6-14.53c-.13-1.22-.7-2.43-1.71-3.5-.38-.4-.73-.84-1.03-1.3-.37-.59-.68-1.21-.92-1.86,0,0,0-.02,0-.03-1.54-4.25.74-7.7.91-7.96l.91-1.22c.14-.19.39-.28.62-.22.51.14.98.42,1.34.8,3.83,4.11,3.85,7.68,3.68,9.03-.28,2.23-1.55,4.32-3.8,6.24h0Zm8.47,14.53h-6.73c.8-2.55.68-5.29-.32-7.77v-5.07c2.68-2.3,4.21-4.86,4.56-7.66.05-.37.07-.75.07-1.13,1.53,1.32,2.42,3.24,2.41,5.26v16.37Z"/><path class="cls-1" d="m87.29,161.61c-20.27,0-39.42-7.98-53.92-22.48-14.5-14.5-22.48-33.64-22.48-53.92s7.98-39.42,22.48-53.92c14.5-14.5,33.64-22.48,53.92-22.48,18.7,0,36.7,6.83,50.69,19.24.93.82,1.01,2.24.19,3.17-.82.93-2.24,1.01-3.17.19-13.17-11.68-30.11-18.11-47.71-18.11-19.07,0-37.1,7.52-50.74,21.16s-21.16,31.67-21.16,50.74,7.52,37.1,21.16,50.74,31.67,21.16,50.74,21.16,37.1-7.52,50.74-21.16,21.16-31.67,21.16-50.74c0-11.58-2.84-23.11-8.21-33.37-.58-1.1-.15-2.46.95-3.03,1.1-.58,2.45-.15,3.03.95,5.71,10.89,8.72,23.15,8.72,35.45,0,20.27-7.98,39.42-22.48,53.92-14.5,14.5-33.64,22.48-53.92,22.48Z"/><circle class="cls-1" cx="145.84" cy="39.79" r="2.39"/></svg>