<?xml version="1.0" encoding="UTF-8"?><svg id="Layer_1" xmlns="http://www.w3.org/2000/svg" viewBox="0 0 161.46 167.13"><defs><style>.cls-1{fill:#005789;}.cls-2{fill:#00b0e2;}</style></defs><path class="cls-2" d="m21.07,132.13c-12.45-16-17.91-36.01-15.37-56.36,2.54-20.34,12.75-38.4,28.75-50.85s36.01-17.91,56.36-15.37c20.34,2.54,38.4,12.75,50.85,28.75,11.48,14.76,17.15,33.16,15.95,51.82-.08,1.24-1.15,2.18-2.38,2.1-1.24-.08-2.18-1.15-2.1-2.38,1.13-17.56-4.2-34.89-15.01-48.78-11.71-15.05-28.71-24.66-47.87-27.05s-37.99,2.75-53.04,14.46-24.66,28.71-27.05,47.87,2.75,37.99,14.46,53.04,28.71,24.66,47.87,27.05,37.99-2.75,53.04-14.46c9.14-7.11,16.5-16.44,21.29-26.97.51-1.13,1.84-1.63,2.97-1.11,1.13.51,1.63,1.84,1.11,2.97-5.09,11.2-12.91,21.11-22.62,28.66-16,12.45-36.02,17.91-56.36,15.37-20.34-2.54-38.4-12.75-50.85-28.75Z"/><circle class="cls-2" cx="153.16" cy="103.52" r="2.39"/><path class="cls-1" d="m128.09,95.91c2.17-2.2,3.38-5.23,3.27-8.41l-.79-22.12c-.17-4.9-2.21-9.47-5.74-12.88s-8.17-5.28-13.07-5.28c-7.17,0-13.55,4.06-16.72,10.17-.57-1.13-1.27-2.19-2.11-3.16-.87-1-1.85-1.87-2.92-2.6.03-.31.05-.62.05-.94,0-4.79-3.89-8.68-8.68-8.68s-8.68,3.89-8.68,8.68c0,.31.02.62.05.93-1.07.73-2.06,1.6-2.92,2.6-.7.81-1.31,1.68-1.82,2.6-3.69-4.92-9.47-7.87-15.78-7.87-10.41,0-19.06,8.14-19.69,18.53l-.66,10.82c-.13,2.2.65,4.37,2.16,5.98,1.51,1.6,3.63,2.52,5.83,2.52h2.43c.79.75,1.66,1.4,2.61,1.95v1.91c0,.34-.2.65-.52.79h0s0,0-.01,0l-8.45,3.76c-4.04,1.79-6.64,5.81-6.64,10.22v9.92c0,4.55,3.7,8.25,8.25,8.25h92.45c.82,0,1.54-.58,1.7-1.39l1.74-8.46c.03-.15.04-8.31.04-8.31,0-3.93-2.06-7.54-5.36-9.55Zm1.89,10.35h-6.94c-.96,0-1.74.78-1.74,1.74v5.04l-.31.14-17.05-1.31v-6.41c0-3.38-1.53-6.52-4.05-8.61l2.61-1.16,7.21,6.64c.33.3.75.46,1.18.46.38,0,.77-.13,1.08-.38l8.01-6.41,5.42,2.41c2.78,1.24,4.58,4.01,4.58,7.05v.8Zm-62.94,13.89c-2.63,0-4.77-2.14-4.77-4.77v-5.64h5.21v3.47c0,.91.7,1.66,1.6,1.73l22.57,1.74c.33.02.67-.05.96-.2l4.32-2.34.88.55c.28.17.59.26.92.26h1.35l-1.04,5.21h-32Zm-25.61-43.4v-6.94h6.94c.66,0,1.26-.37,1.55-.96l1.92-3.84,1.92,3.84c.29.59.9.96,1.55.96h6.94v6.94c0,5.74-4.67,10.42-10.42,10.42s-10.42-4.67-10.42-10.42Zm-3.47,0c-.96,0-1.74-.78-1.74-1.74s.78-1.74,1.74-1.74v3.47Zm78.47,17.64l-5.48,4.38-5.14-4.73c.99-.81,1.59-2.04,1.59-3.35v-.48c1.11.29,2.27.44,3.47.44s2.36-.15,3.47-.44v.48c0,1.53.8,2.92,2.08,3.71Zm-5.56-7.22c-5.74,0-10.42-4.67-10.42-10.42v-6.94h6.94c.66,0,1.26-.37,1.55-.96l1.92-3.84,1.92,3.84c.29.59.9.96,1.55.96h6.94v6.94c0,5.74-4.67,10.42-10.42,10.42Zm-6.94,1.6v1.91c0,.34-.2.65-.52.79l-5.21,2.32c-1.72-1.56-2.68-3.8-2.6-6.16l.33-9.19c.39-.05.77-.14,1.12-.28.46,4.53,3.11,8.43,6.87,10.61Zm-3.47,22.7h-1.24l-1.31-.82c-.53-.33-1.2-.35-1.75-.05l-.91.49v-1.35h5.21v1.74h0Zm0-5.21h-6.94c-.96,0-1.74.78-1.74,1.74v4.97l-.38.2-20.46-1.57v-3.6c0-.96-.78-1.74-1.74-1.74h-6.94v-.8c0-3.05,1.8-5.81,4.58-7.05l4.83-2.15,2.87,7.17c.22.54.69.94,1.26,1.06.12.02.23.04.35.04.46,0,.9-.18,1.23-.51l3.98-3.98,3.98,3.98c.33.33.77.51,1.23.51.09,0,.19,0,.28-.02.55-.09,1.03-.44,1.27-.94l3.47-6.94s.03-.06.04-.1l4.24,1.88c2.78,1.24,4.58,4.01,4.58,7.05v.8Zm-19.1-15.63c1.2,0,2.36-.15,3.47-.44v.48c0,.3.03.59.09.88l-3.56,3.56-3.56-3.56c.06-.29.09-.58.09-.88v-.48c1.11.29,2.27.44,3.47.44Zm10.78-3.13c-.08,2.18.46,4.29,1.52,6.12l-4.83-2.15c-.31-.14-.52-.45-.52-.79v-1.91c1.5-.87,2.83-2.02,3.91-3.37l-.08,2.1Zm-5.16,6.92c.14.08,1.49.69,1.49.69l-2.37,4.74-2.28-2.28,3.16-3.16Zm-11.23,0l3.16,3.16-2.12,2.12-1.94-4.85s.76-.35.9-.43Zm19.51-19.41v-3.47c.96,0,1.74.78,1.74,1.74s-.78,1.74-1.74,1.74Zm-3.47,1.74c0,5.74-4.67,10.42-10.42,10.42s-10.42-4.67-10.42-10.42v-7.04c4.06-.46,7.83-2.51,10.42-5.71,2.58,3.19,6.36,5.25,10.42,5.71v7.04Zm-26.11,1.41c.56.21,1.17.32,1.81.32h.11c.13,1.05.38,2.06.73,3.02-.85,1.15-2.19,1.83-3.64,1.83h-.6c.85-1.57,1.41-3.32,1.6-5.18Zm1.81-6.62v3.47c-.96,0-1.74-.78-1.74-1.74s.78-1.74,1.74-1.74Zm-6.07,15.28h3.27c2.02,0,3.91-.75,5.36-2.05,1.16,1.63,2.65,3,4.39,4.01v1.91c0,.34-.2.65-.52.79l-7.3,3.24-7.28-3.24s0,0-.01,0h0c-.31-.14-.52-.45-.52-.8v-1.91c.95-.55,1.82-1.21,2.61-1.95Zm-2.4,8.65l.18-.24,1.35.6v2.77c0,.97-.48,1.86-1.28,2.4-1.14.76-2.67.61-3.64-.36l-.95-.95c1.68-1.14,3.15-2.57,4.35-4.21Zm37.66-32.33c1.39-7.2,7.73-12.43,15.08-12.43,8.31,0,15.05,6.5,15.35,14.81l.79,22.12c.09,2.63-1.12,5.11-3.21,6.66l-6.33-2.81c-.31-.14-.52-.45-.52-.79v-1.91c4.15-2.41,6.94-6.89,6.94-12.02v-8.68c0-.96-.78-1.74-1.74-1.74h-7.61l-2.99-5.98c-.29-.59-.9-.96-1.55-.96s-1.26.37-1.55.96l-2.99,5.98h-7.61c-.96,0-1.74.78-1.74,1.74v.3c-.24-.08-.49-.15-.74-.2l.25-1.74c.15-1.03.18-2.07.12-3.09.02-.06.04-.13.05-.19Zm-15.31-17.63c2.59,0,4.74,1.89,5.14,4.37-1.63-.58-3.37-.89-5.14-.89s-3.51.31-5.14.89c.4-2.47,2.55-4.37,5.14-4.37Zm-8.93,11.02c.79-.92,1.72-1.69,2.73-2.31.27-.08.5-.22.69-.4,1.68-.89,3.57-1.36,5.51-1.36,3.43,0,6.68,1.49,8.93,4.07,2.25,2.59,3.26,6.02,2.77,9.41l-.06.39c-3.62-.15-7.03-1.94-9.21-4.85l-1.04-1.39c-.33-.44-.84-.69-1.39-.69s-1.06.26-1.39.69l-1.04,1.39c-2.18,2.91-5.59,4.69-9.21,4.85l-.06-.39c-.48-3.39.52-6.82,2.77-9.41Zm-20.21-4.07c5.97,0,11.38,3.21,14.24,8.41-.41,1.81-.5,3.69-.23,5.57l.25,1.74c-.25.05-.5.12-.74.2v-.3c0-.96-.78-1.74-1.74-1.74h-7.61l-2.99-5.98c-.29-.59-.9-.96-1.55-.96s-1.26.37-1.55.96l-2.99,5.98h-7.61c-.96,0-1.74.78-1.74,1.74v1.74c-.75,0-1.47.16-2.12.45l.15-2.54c.52-8.56,7.65-15.27,16.23-15.27Zm-16.83,27.1c.76.43,1.63.68,2.57.68h.44c.28,1.09.7,2.14,1.22,3.11-1.17-.06-2.25-.56-3.06-1.42-.63-.67-1.03-1.49-1.17-2.37Zm16.46,11.1c1.2,0,2.36-.15,3.47-.44v.48c0,.99.34,1.92.92,2.67l-.05.07c-1.16,1.59-2.65,2.94-4.35,3.92-1.7-.99-3.19-2.33-4.35-3.92l-.05-.07c.59-.75.92-1.68.92-2.67v-.48c1.11.29,2.27.44,3.47.44Zm-8.68,5.18l1.35-.6.18.24c1.19,1.64,2.67,3.07,4.35,4.21l-.95.95c-.97.97-2.5,1.12-3.64.36-.8-.54-1.28-1.43-1.28-2.4v-2.77Zm-5.83,2.59l2.36-1.05v1.22c0,2.13,1.06,4.11,2.83,5.29,1.07.71,2.3,1.06,3.52,1.06,1.46,0,2.9-.5,4.07-1.46v4.53c0,.96.78,1.74,1.74,1.74s1.74-.78,1.74-1.74v-4.53c1.16.97,2.61,1.46,4.07,1.46.39,0,.78-.04,1.16-.11-.01.21-.02,8.11-.02,8.11l-17.36-1.34v-3.6c0-.96-.78-1.74-1.74-1.74h-6.94v-.8c0-3.05,1.8-5.81,4.58-7.05Zm-4.58,16.97v-5.64h5.21v3.47c0,.91.7,1.66,1.6,1.73l19.3,1.48c.18,1.38.69,2.65,1.46,3.73h-22.8c-2.63,0-4.77-2.14-4.77-4.77Zm95.81,4.77h-25.98l.97-4.83,17.62,1.36c.29.02.58-.03.85-.15l3.94-1.79,1.39.83c.36.22.8.3,1.21.22l.93-.17-.93,4.55Zm0-7.9l-1.61-.96c-.49-.29-1.09-.33-1.61-.09l-.58.27v-1.72h5.21v2.25l-1.41.26Z"/></svg>