<?xml version="1.0" encoding="UTF-8"?><svg id="Layer_1" xmlns="http://www.w3.org/2000/svg" viewBox="0 0 163.74 167.13"><defs><style>.cls-1{fill:#005789;}.cls-2{fill:#00b0e2;}</style></defs><path class="cls-2" d="m20.85,39.53c12.12-16.25,29.97-26.82,50.26-29.78,20.29-2.95,40.41,2.1,56.66,14.22,16.25,12.12,26.82,29.97,29.78,50.26,2.95,20.29-2.1,40.41-14.22,56.66-11.18,14.99-27.42,25.33-45.73,29.13-1.21.25-2.4-.53-2.65-1.74-.25-1.21.53-2.4,1.74-2.65,17.23-3.57,32.52-13.31,43.04-27.41,11.41-15.29,16.16-34.23,13.38-53.33-2.78-19.1-12.73-35.9-28.02-47.31s-34.23-16.16-53.33-13.38-35.9,12.73-47.31,28.02-16.16,34.23-13.38,53.33c2.78,19.1,12.73,35.9,28.02,47.31,9.28,6.92,20.23,11.55,31.66,13.37,1.22.2,2.06,1.35,1.86,2.57-.19,1.22-1.35,2.06-2.57,1.86-12.15-1.94-23.78-6.85-33.63-14.21-16.25-12.12-26.83-29.97-29.78-50.26-2.95-20.29,2.1-40.41,14.22-56.66Z"/><circle class="cls-2" cx="83.49" cy="159.29" r="2.39"/><path class="cls-1" d="m125.58,66.18c-.2-.32-.41-.66-.55-.92-3.63-6.52-7.47-13.55-10.55-19.2l-.85-1.55c-1.39-2.55-2.83-5.19-4.26-7.38-.25-.38-.66-.6-1.12-.6-.02,0-.04,0-.05,0-.02,0-.03,0-.05,0-3.79.28-9.33,2.08-12.06,4.6-1.12,1.04-2.41,2.46-2.43,4.12,0,.39.06.77.2,1.13-5.54,3.53-12.39,7.84-18.84,11.83-.16.1-.43.23-.69.37-1.19.6-2.43,1.22-2.64,2.37-.22,1.16.56,2.26,1.25,3.23.05.07.12.17.19.27-4.02,2.64-8.55,5.43-12.92,8.13l-.59.36c-2.56,1.58-5.21,3.22-7.73,4.8-.11.07-.25.16-.46.28-2.02,1.21-2.9,1.87-3.08,2.77-.22,1.15.51,2.25,1.16,3.22h0c.06.09.12.19.19.28-1.3.83-2.72,1.59-4.1,2.32l-.36.19c-.58.31-1.18.63-1.77.95-.23-.44-.46-.91-.66-1.33l-.02-.05c-.51-1.06-1.04-2.15-1.79-3.11-.25-.32-.65-.51-1.05-.51-.1,0-.21.01-.32.04-1.93.48-3.37,1.4-4.79,2.38-.47.32-.68.9-.53,1.45.41,1.54,1.25,2.72,2.07,3.87.43.6.87,1.22,1.21,1.86.48.9.93,1.84,1.38,2.76l.04.08c.96,1.99,1.95,4.04,3.26,5.92.25.36.66.57,1.09.57.16,0,.32-.03.47-.08,2.76-1.04,5.24-2.34,7.63-3.6,1.29-.68,2.76-1.45,4.22-2.15.11.21.21.42.32.65l.02.05c.45.92.91,1.87,1.59,2.69.25.31.63.48,1.03.48.17,0,.35-.04.51-.1,4.34-1.8,8.5-3.86,12.51-5.86l.08-.04c1.77-.88,3.6-1.79,5.43-2.67.13.7.36,1.35.69,1.96-3.18,6.79-6.33,13.62-9.63,20.86-1.09,2.4-2.26,4.84-3.38,7.19l-.05.11c-2.21,4.62-4.48,9.38-6.42,14.26-.23.58-.02,1.26.5,1.6.73.48,1.84.72,3.37.72s2.96-.23,3.37-.3c.44-.08.82-.36,1-.78,2.76-6.32,5.5-12.68,8.55-19.74l.3-.7c2.77-6.43,5.64-13.07,8.48-19.58h.02c2.95,6.41,5.79,13.07,8.55,19.51l.09.21c2.86,6.7,5.83,13.64,8.91,20.32.18.39.54.67.96.75.76.14,2.01.3,3.24.3.01,0,.02,0,.04,0,1.55,0,2.66-.24,3.39-.73.52-.35.73-1.03.49-1.61-2.12-5.14-4.54-10.34-6.68-14.93l-.11-.23c-.97-2.09-1.98-4.25-2.94-6.38-1.86-4.1-3.88-8.34-5.65-12.08l-.09-.19c-1.27-2.68-2.59-5.45-3.86-8.19.87-1.42,1.22-3.5.89-5.29,3.66-2.04,7.44-3.97,11.09-5.83,2.94-1.5,6.27-3.2,9.45-4.93.24.48.63.99,1.35,1.22.08.11.21.11.31.12.11,0,.27,0,.55,0,1.08,0,2.43-.48,3.71-.97.12-.05.26-.1.37-.14,2.63-.97,4.87-2.27,6.65-3.85,1.69-1.51,2.55-2.69,2.62-3.62.08-1.01-.62-2.23-1.69-3.97Zm-42.06,21.85l.23-.11c.16-.08.32-.15.47-.23.45-.22.92-.45,1.38-.67.05.09.1.19.14.29.24.48.51,1.02.95,1.49.18.24.42.42.7.52.11.85-.09,1.64-.57,2.3-.61.84-1.62,1.34-2.68,1.34h-.09c-1-.03-1.82-.39-2.39-1.05-.55-.63-.84-1.52-.83-2.56.88-.45,1.8-.89,2.68-1.31Zm.19-4.38c-2.86,1.37-5.73,2.77-8.51,4.13l-.97.48c-4.48,2.19-9.54,4.68-14.58,7-.74-1.42-1.48-2.86-2.2-4.26v-.03c-1.55-2.98-3.14-6.06-4.72-9.1,2.37-1.48,4.77-2.99,7.09-4.45.5-.32,1-.63,1.5-.95l.18-.11c4.39-2.77,8.94-5.63,13.46-8.41,2.01,3.38,4.03,7.08,5.98,10.66l.13.24c.86,1.58,1.75,3.21,2.63,4.79Zm26.11-9.57c-2.61,1.34-5.2,2.69-7.7,4l-.31.16c-4.22,2.2-8.59,4.48-12.96,6.65-1.04-1.86-2.08-3.73-3.09-5.54l-.1-.18c-3.12-5.6-6.35-11.38-9.46-17.16,5.65-3.55,12.63-7.94,19.7-12.17.36.62.73,1.25,1.09,1.86.26.44.51.87.77,1.31,4.01,6.84,8.16,13.91,12.06,21.07Zm13.22-4.26c-1.83,2.18-4.59,3.75-8.44,4.81-3.1-5.6-6.32-11.14-9.43-16.5-2.33-4.02-4.97-8.57-7.47-12.99,2.05-2.73,5.78-3.85,9.22-4.57,5.75,10.09,11.37,20.44,16.12,29.26Zm-69.18,22.65c-1.23.61-2.45,1.24-3.63,1.84l-.24.13c-1.81.94-3.69,1.91-5.63,2.81-.23-.43-.46-.85-.68-1.25l-.04-.08c-.56-1.01-1.08-1.97-1.55-2.98,1.85-.96,3.68-1.98,5.3-2.89l.31-.17c1.22-.69,2.49-1.39,3.76-2.07.45.91.92,1.81,1.38,2.68l.04.07c.3.59.65,1.24.99,1.91Z"/></svg>