<?xml version="1.0" encoding="UTF-8"?><svg id="Layer_1" xmlns="http://www.w3.org/2000/svg" viewBox="0 0 165.19 167.13"><defs><style>.cls-1{fill:#00b0e2;}.cls-2{fill:#005789;stroke:#005789;stroke-miterlimit:10;stroke-width:2px;}</style></defs><path class="cls-1" d="m72.67,9.42c20.11-2.55,40.11,2.97,56.31,15.53s26.53,30.55,29.07,50.67-2.97,40.11-15.53,56.32c-12.56,16.2-30.55,26.53-50.67,29.07-18.55,2.35-37.27-2.17-52.71-12.72-1.02-.7-1.29-2.1-.59-3.12.7-1.02,2.1-1.29,3.12-.59,14.53,9.93,32.15,14.18,49.61,11.97,18.92-2.4,35.86-12.12,47.68-27.37,11.83-15.25,17.02-34.08,14.62-53-2.4-18.92-12.12-35.86-27.37-47.68-15.25-11.83-34.08-17.02-53-14.62s-35.86,12.12-47.68,27.37c-11.83,15.25-17.02,34.08-14.62,53,1.45,11.48,5.72,22.58,12.34,32.07.71,1.02.46,2.42-.56,3.13-1.02.71-2.42.46-3.13-.56-7.03-10.09-11.56-21.88-13.11-34.08-2.55-20.11,2.97-40.11,15.53-56.32,12.56-16.2,30.55-26.53,50.67-29.07Z"/><circle class="cls-1" cx="29.89" cy="137.62" r="2.39"/><path class="cls-2" d="m67.75,118.53c-.63,0-1.15.51-1.15,1.15v8.68c0,.63.51,1.15,1.15,1.15s1.15-.51,1.15-1.15v-8.68c0-.63-.51-1.15-1.15-1.15Z"/><path class="cls-2" d="m66.1,106.13h-14.89c-5.85,0-10.62,4.76-10.62,10.62v11.61c0,.63.51,1.15,1.15,1.15s1.15-.51,1.15-1.15v-11.61c0-4.59,3.73-8.32,8.32-8.32h14.89c4.59,0,8.32,3.73,8.32,8.32v11.61c0,.63.51,1.15,1.15,1.15s1.15-.51,1.15-1.15v-11.61c0-5.86-4.76-10.62-10.62-10.62Z"/><path class="cls-2" d="m57.19,103.35h2.93c3.88,0,7.04-3.16,7.04-7.04v-5.95c0-3.88-3.16-7.04-7.04-7.04h-2.93c-3.88,0-7.04,3.16-7.04,7.04v5.95c0,3.88,3.16,7.04,7.04,7.04Zm-4.75-13c0-2.62,2.13-4.75,4.75-4.75h2.93c2.62,0,4.75,2.13,4.75,4.75v5.95c0,2.62-2.13,4.75-4.75,4.75h-2.93c-2.62,0-4.75-2.13-4.75-4.75v-5.95Z"/><path class="cls-2" d="m96.78,118.53c-.63,0-1.15.51-1.15,1.15v8.68c0,.63.51,1.15,1.15,1.15s1.15-.51,1.15-1.15v-8.68c0-.63-.51-1.15-1.15-1.15Z"/><path class="cls-2" d="m114.97,118.53c-.63,0-1.15.51-1.15,1.15v8.68c0,.63.51,1.15,1.15,1.15s1.15-.51,1.15-1.15v-8.68c0-.63-.51-1.15-1.15-1.15Z"/><path class="cls-2" d="m113.32,106.13h-14.89c-5.86,0-10.62,4.76-10.62,10.62v11.61c0,.63.51,1.15,1.15,1.15s1.15-.51,1.15-1.15v-11.61c0-4.59,3.73-8.32,8.32-8.32h14.89c4.59,0,8.32,3.73,8.32,8.32v11.61c0,.63.51,1.15,1.15,1.15s1.15-.51,1.15-1.15v-11.61c0-5.86-4.76-10.62-10.62-10.62Z"/><path class="cls-2" d="m107.34,83.31h-2.93c-3.88,0-7.04,3.16-7.04,7.04v5.95c0,3.88,3.16,7.04,7.04,7.04h2.93c3.88,0,7.04-3.16,7.04-7.04v-5.95c0-3.88-3.16-7.04-7.04-7.04Zm4.75,13c0,2.62-2.13,4.75-4.75,4.75h-2.93c-2.62,0-4.75-2.13-4.75-4.75v-5.95c0-2.62,2.13-4.75,4.75-4.75h2.93c2.62,0,4.75,2.13,4.75,4.75v5.95Z"/><path class="cls-2" d="m88.12,76.67h15.2l5.53,5.53c.22.22.51.34.81.34.15,0,.3-.03.44-.09.43-.18.71-.6.71-1.06v-5.8c1.56-1.09,2.5-2.86,2.5-4.77v-13.54c0-3.23-2.63-5.85-5.85-5.85h-11.61v-4.4c0-3.99-3.25-7.24-7.24-7.24h-25.02c-3.99,0-7.24,3.25-7.24,7.24v17.53c0,2.42,1.23,4.66,3.24,6v7.68c0,.46.28.88.71,1.06.14.06.29.09.44.09.3,0,.59-.12.81-.33l7.25-7.25h13.56c.47,2.76,2.86,4.88,5.75,4.88Zm-19.79-7.17c-.3,0-.6.12-.81.33l-5.63,5.63v-5.56c0-.42-.23-.81-.61-1.01-1.62-.87-2.63-2.53-2.63-4.34v-17.53c0-2.72,2.22-4.94,4.94-4.94h25.02c2.72,0,4.94,2.22,4.94,4.94v17.53c0,2.72-2.22,4.94-4.94,4.94h-20.28Zm20.28,2.29c3.99,0,7.24-3.25,7.24-7.24v-10.84h11.61c1.96,0,3.56,1.6,3.56,3.56v13.54c0,1.3-.73,2.49-1.89,3.12-.37.2-.61.59-.61,1.01v3.67l-3.91-3.91c-.22-.22-.51-.34-.81-.34h-15.67c-1.62,0-2.93-1.11-3.36-2.58h3.85Z"/><path class="cls-2" d="m85.35,49.75h-18.5c-.63,0-1.15.51-1.15,1.15s.51,1.15,1.15,1.15h18.5c.63,0,1.15-.51,1.15-1.15s-.51-1.15-1.15-1.15Z"/><path class="cls-2" d="m85.35,55.71h-18.5c-.63,0-1.15.51-1.15,1.15s.51,1.15,1.15,1.15h18.5c.63,0,1.15-.51,1.15-1.15s-.51-1.15-1.15-1.15Z"/><path class="cls-2" d="m78.59,61.67h-11.73c-.63,0-1.15.51-1.15,1.15s.51,1.15,1.15,1.15h11.73c.63,0,1.15-.51,1.15-1.15s-.51-1.15-1.15-1.15Z"/></svg>