<?xml version="1.0" encoding="UTF-8"?><svg id="Layer_1" xmlns="http://www.w3.org/2000/svg" viewBox="0 0 167.84 167.13"><defs><style>.cls-1{fill:#005789;}.cls-2{fill:#00b0e2;}</style></defs><path class="cls-2" d="m146.97,42.35c11.37,16.78,15.51,37.11,11.64,57.24s-15.24,37.48-32.02,48.86-37.11,15.51-57.24,11.64c-20.13-3.87-37.48-15.24-48.86-32.02-10.49-15.48-14.94-34.21-12.51-52.76.16-1.23,1.29-2.1,2.52-1.94,1.23.16,2.1,1.29,1.94,2.52-2.28,17.45,1.9,35.09,11.78,49.66,10.7,15.79,27.03,26.49,45.99,30.13,18.95,3.64,38.09-.25,53.88-10.95,15.79-10.7,26.49-27.03,30.13-45.99s-.25-38.09-10.95-53.88c-10.7-15.79-27.03-26.49-45.99-30.13-18.95-3.64-38.09.25-53.88,10.95-9.58,6.49-17.54,15.32-23.02,25.52-.59,1.09-1.95,1.5-3.04.92-1.09-.58-1.5-1.95-.92-3.04,5.82-10.84,14.27-20.21,24.45-27.11,16.78-11.37,37.11-15.51,57.24-11.64,20.13,3.87,37.48,15.24,48.86,32.02Z"/><circle class="cls-2" cx="13.29" cy="62.23" r="2.39"/><path class="cls-1" d="m123.36,100.65c-.87,0-1.58.71-1.58,1.58v11.05h-3.16v-17.36c0-.87-.71-1.58-1.58-1.58h-18.94c-.87,0-1.58.71-1.58,1.58v12.62c0,.87.71,1.58,1.58,1.58s1.58-.71,1.58-1.58v-11.05h15.78v15.78h-3.16c-.87,0-1.58.71-1.58,1.58s.71,1.58,1.58,1.58h3.16v9.47h-22.09v-3.16h4.73c.87,0,1.58-.71,1.58-1.58s-.71-1.58-1.58-1.58h-7.89v-3.16h7.89c.87,0,1.58-.71,1.58-1.58s-.71-1.58-1.58-1.58h-18.94v-6.31h6.31c3.48,0,6.31-2.83,6.31-6.31v-6.31c0-2-1.25-3.7-3-4.39.14-.2.37-.34.63-.34,2.17,0,3.94-1.77,3.94-3.94v-.79h3.16c.57,0,1.09-.31,1.37-.8.28-.49.27-1.1-.02-1.59l-4.73-7.89c-.57-.95-2.14-.95-2.71,0l-4.73,7.89c-.29.49-.3,1.1-.02,1.59.28.49.81.8,1.37.8h3.16v.79c0,.44-.35.79-.79.79-2,0-3.64,1.5-3.89,3.43-1.86.64-3.21,2.39-3.21,4.46v3.16h-7.19c.54-.93.88-2,.88-3.16v-3.16c.87,0,1.58-.71,1.58-1.58v-1.58c0-3.81-2.72-7-6.31-7.73v-.16c0-.87-.71-1.58-1.58-1.58s-1.58.71-1.58,1.58v.16c-3.6.73-6.31,3.92-6.31,7.73v1.58c0,.87.71,1.58,1.58,1.58v3.16c0,1.18.35,2.28.92,3.22-4.04.34-7.23,3.7-7.23,7.82v1.58h-6.31c-.87,0-1.58.71-1.58,1.58s.71,1.58,1.58,1.58h1.58v3.16h-6.31v-12.62h4.73c.87,0,1.58-.71,1.58-1.58v-18.94c0-.87-.71-1.58-1.58-1.58h-4.73v-3.56c0-.87-.71-1.58-1.58-1.58s-1.58.71-1.58,1.58v52.48c0,.87.71,1.58,1.58,1.58h78.9c.87,0,1.58-.71,1.58-1.58v-25.25c0-.87-.71-1.58-1.58-1.58Zm-31.56-22.18l1.95,3.24h-3.89l1.95-3.24Zm29.98,41.12h-3.16v-3.16h3.16v3.16Zm-34.72,0h-6.31v-3.16h6.31v3.16Zm-15.78,0v-3.16h6.31v3.16h-6.31Zm-9.47,0v-3.16h6.31v3.16h-6.31Zm-9.47,0v-3.16h6.31v3.16h-6.31Zm12.62-9.47h6.31v3.16h-6.31v-3.16Zm3.16-9.69c.51.13,1.03.22,1.58.22s1.07-.09,1.58-.22v.22c0,.87-.71,1.58-1.58,1.58s-1.58-.71-1.58-1.58v-.22Zm0-16.84v1.29c0,.87.71,1.58,1.58,1.58s1.58-.71,1.58-1.58v-1.29c1.83.65,3.16,2.39,3.16,4.44h-9.47c0-2.05,1.32-3.79,3.16-4.44Zm4.73,7.6v3.16c0,1.74-1.42,3.16-3.16,3.16s-3.16-1.42-3.16-3.16v-3.16h6.31Zm-12.62,14.2c0-2.61,2.12-4.73,4.73-4.73,0,2.61,2.12,4.73,4.73,4.73s4.73-2.12,4.73-4.73h9.47c.87,0,1.58-.71,1.58-1.58v-4.73c0-.29.1-.55.24-.79.27.46.76.79,1.33.79s1.06-.33,1.33-.79c.14.24.24.5.24.79v6.31c0,1.74-1.42,3.16-3.16,3.16h-7.89c-.87,0-1.58.71-1.58,1.58v7.89h-1.58v-4.73c0-.87-.71-1.58-1.58-1.58h-12.62v-1.58Zm-4.73,4.73h6.31v3.16h-6.31v-3.16Zm-6.31,6.31v3.16h-3.16v-3.16h3.16Zm0-18.94h-3.16v-6.31h3.16v6.31Zm0-15.78v6.31h-3.16v-6.31h3.16Zm-3.16,41.03h6.31v3.16h-6.31v-3.16Zm9.47,0h6.31v3.16h-6.31v-3.16Zm9.47,0h6.31v3.16h-6.31v-3.16Zm9.47,0h6.31v3.16h-6.31v-3.16Zm9.47,3.16v-3.16h6.31v3.16h-6.31Zm37.87,0h-3.16v-3.16h3.16v3.16Z"/><path class="cls-1" d="m130.5,63.02l-17.29-10.73c-.74-.46-1.71-.23-2.17.51-.46.74-.23,1.71.51,2.17l16.07,9.97-1.73,3.47-41.13-25.9c-.51-.32-1.17-.32-1.68,0l-41.13,25.9-1.73-3.47,43.71-27.13,22.27,13.82c.74.46,1.71.23,2.17-.51s.23-1.71-.51-2.17l-23.1-14.34c-.51-.32-1.15-.32-1.66,0l-45.76,28.4c-.69.43-.94,1.32-.58,2.05l3.16,6.31c.2.4.56.69.99.81.43.12.89.05,1.27-.18l4.63-2.91h65.26c.87,0,1.58-.71,1.58-1.58s-.71-1.58-1.58-1.58h-18.66v-11.05c0-.87-.71-1.58-1.58-1.58h-15.78c-.87,0-1.58.71-1.58,1.58v11.05h-22.66l32.13-20.23,37.87,23.84v26.36c0,.87.71,1.58,1.58,1.58s1.58-.71,1.58-1.58v-24.38l.74.46c.25.16.55.24.84.24.14,0,.29-.02.42-.06.43-.12.79-.42.99-.81l3.16-6.31c.36-.73.11-1.62-.58-2.05Zm-45.01,2.92v-3.16h4.73v3.16h-4.73Zm4.73-6.31h-4.73v-3.16h4.73v3.16Zm-7.89-3.16v3.16h-4.73v-3.16h4.73Zm-4.73,6.31h4.73v3.16h-4.73v-3.16Z"/></svg>