<?xml version="1.0" encoding="UTF-8"?><svg id="Layer_1" xmlns="http://www.w3.org/2000/svg" xmlns:xlink="http://www.w3.org/1999/xlink" viewBox="0 0 159.38 167.13"><defs><style>.cls-1{fill:none;}.cls-2{clip-path:url(#clippath);}.cls-3{fill:#00b0e2;}.cls-4{fill:#fedf00;}.cls-5{fill:#fff;}.cls-6{fill:#253370;}.cls-7{fill:#0a9c49;}.cls-8{clip-path:url(#clippath-1);}</style><clipPath id="clippath"><circle class="cls-1" cx="79.23" cy="85.21" r="44.35"/></clipPath><clipPath id="clippath-1"><circle class="cls-6" cx="79.23" cy="85.21" r="22.17" transform="translate(-18.63 148.15) rotate(-79.83)"/></clipPath></defs><path class="cls-3" d="m140.7,131.48c-12.28,16.13-30.23,26.53-50.54,29.29-20.31,2.75-40.39-2.49-56.52-14.77-16.13-12.28-26.53-30.23-29.29-50.54-2.75-20.31,2.49-40.39,14.77-56.52,11.33-14.88,27.67-25.07,46.01-28.68,1.22-.24,2.4.55,2.64,1.77.24,1.22-.55,2.4-1.77,2.64-17.27,3.4-32.65,12.99-43.31,27-11.55,15.18-16.49,34.07-13.89,53.2,2.59,19.13,12.38,36.02,27.56,47.57,15.18,11.55,34.07,16.49,53.2,13.89,19.13-2.59,36.02-12.38,47.57-27.56,11.55-15.18,16.49-34.07,13.89-53.2-2.59-19.13-12.38-36.02-27.56-47.57-9.21-7.01-20.11-11.74-31.53-13.68-1.22-.21-2.05-1.37-1.84-2.59.21-1.22,1.37-2.05,2.59-1.84,12.13,2.06,23.71,7.08,33.49,14.53,16.13,12.28,26.53,30.23,29.29,50.54,2.75,20.31-2.49,40.39-14.77,56.52Z"/><circle class="cls-3" cx="79.23" cy="11.12" r="2.39"/><g class="cls-2"><rect id="_48" class="cls-7" x="15.87" y="40.86" width="126.71" height="88.7"/><path id="_47" class="cls-4" d="m26.65,85.21l52.58,33.58,52.58-33.58-52.58-33.58-52.58,33.58Z"/><g id="_45"><circle class="cls-6" cx="79.23" cy="85.21" r="22.17" transform="translate(-18.63 148.15) rotate(-79.83)"/><g class="cls-8"><path class="cls-5" d="m12.71,129.56c0-29.74,24.11-53.85,53.85-53.85s53.85,24.11,53.85,53.85h-3.17c0-27.99-22.69-50.68-50.68-50.68s-50.68,22.69-50.68,50.68h-3.17Z"/></g></g><path id="_44" class="cls-7" d="m67.4,78.35l1.9.07v-.39s-1.52-.05-1.52-.05l.02-.54,1.21.04v-.36s-1.19-.04-1.19-.04v-.42s1.46.05,1.46.05v-.39s-1.8-.06-1.8-.06l-.07,2.11Z"/><path id="_43" class="cls-7" d="m70.08,78.46l.36.03.13-1.44.29,1.48.33.03.55-1.41-.13,1.44.36.03.18-2.1-.53-.05-.55,1.41-.29-1.48-.53-.05-.18,2.1Z"/><path id="_42" class="cls-7" d="m74.45,78.95l1.56.27.06-.36-1.2-.21.08-.48.98.17.06-.36-.98-.17.06-.33,1.17.2.06-.36-1.52-.26-.32,1.87Z"/><rect id="_41" class="cls-7" x="87.69" y="81.58" width=".3" height=".8" transform="translate(-22.36 129.87) rotate(-66.51)"/><rect id="_40" class="cls-7" x="87.39" y="82.28" width="1.06" height=".3" transform="translate(-22.71 130.23) rotate(-66.52)"/><path id="_39" class="cls-7" d="m94.03,85.55c-.11.18,0,.38.26.54.25.16.43.16.5.04.23-.36-1.1-.89-.69-1.52.35-.54.96-.12,1.19.03.23.15.6.52.31.96l-.39-.25c.12-.19-.01-.37-.22-.5-.2-.13-.36-.18-.47,0-.2.29,1.11.85.71,1.48-.3.46-.81.26-1.15.04-.29-.19-.73-.63-.45-1.07l.4.26Z"/><path id="_38" class="cls-7" d="m90.95,84.52l1.65.94.19-.34-1.34-.76.27-.47,1.05.59.18-.32-1.05-.59.21-.37,1.26.71.19-.34-1.58-.89-1.04,1.84Z"/><path id="_37" class="cls-7" d="m96.3,87.05c-.12.17-.02.38.23.55.25.18.42.18.5.07.25-.35-1.06-.95-.61-1.56.38-.52.97-.07,1.19.09.22.16.57.55.26.97l-.37-.27c.13-.18,0-.37-.19-.51-.19-.14-.35-.2-.47-.02-.21.28,1.07.91.63,1.52-.32.45-.82.22-1.15-.02-.28-.2-.7-.66-.39-1.09l.39.28Z"/><path id="_36" class="cls-7" d="m61.13,77.57c-.07-.58-.55-1-1.07-.93-.52.06-.89.58-.81,1.16.07.58.55,1,1.07.93.52-.06.89-.59.81-1.16Zm-.94-.53c.72,0,.72,1.29,0,1.29s-.72-1.29,0-1.29Z"/><path id="_35" class="cls-7" d="m100.04,89.14c.27-.52.11-1.13-.36-1.37-.47-.24-1.06-.02-1.33.5-.27.52-.11,1.13.36,1.37.47.24,1.06.02,1.33-.5Zm-.48-.97c.59.41-.13,1.47-.73,1.06-.59-.41.13-1.47.73-1.06Z"/><path id="_34" class="cls-7" d="m66.44,76.64c-.23-.37-.7-.39-.7-.39l-1.06.02.04,2.11s.84,0,1.06-.02c.22-.02.48-.15.65-.37.17-.22.17-.49.17-.65,0-.16.02-.39-.16-.69Zm-.86,1.33c-.16,0-.47,0-.47,0,0,0-.02-1.07-.02-1.33.44,0,.45,0,.62,0,.31,0,.45.24.51.39.02.17.03.24.03.38-.02.16-.07.29-.2.41-.22.15-.33.15-.47.15Z"/><path id="_33" class="cls-7" d="m63.55,77.55s.22-.19.28-.45c.06-.27-.11-.49-.18-.55s-.22-.21-.44-.2-1.29.08-1.29.08l.12,2.11.39-.03-.05-.78.68-.05h.16s.21.33.23.54c.01.13.01.23.01.23h.38s0-.38-.1-.6c-.11-.22-.19-.31-.19-.31Zm-.24-.33c-.08.07-.31.07-.31.07l-.65.04s-.03-.37-.04-.54c.1,0,.62-.04.63-.04.1,0,.22-.01.22-.01,0,0,.09,0,.17.08.02.01.09.07.09.18,0,.11-.06.2-.1.23Z"/><path id="_32" class="cls-7" d="m85.86,80.76c.08-.58-.28-1.1-.8-1.18-.52-.07-1.01.34-1.09.92-.08.58.28,1.1.8,1.18.52.07,1.01-.34,1.09-.92Zm-.78-.75c.69.18.36,1.43-.33,1.24-.69-.18-.36-1.43.33-1.24Z"/><path id="_31" class="cls-7" d="m82.82,79.94s.27-.1.41-.34.06-.49.01-.58-.14-.27-.35-.33c-.21-.06-1.25-.34-1.25-.34l-.58,2.03.38.1.2-.76.66.18.16.04s.09.39.04.6c-.03.12-.06.22-.06.22l.36.12s.13-.35.1-.6c-.03-.25-.08-.35-.08-.35Zm-.12-.39c-.1.04-.32-.03-.32-.03l-.63-.17s.1-.36.14-.52c.09.03.6.16.61.16.1.03.21.06.21.06,0,0,.08.03.14.13.01.02.06.1.02.2-.04.1-.13.17-.17.18Z"/><path id="_30" class="cls-7" d="m90.49,83.05s.28-.08.44-.3c.16-.22.1-.49.06-.57-.04-.09-.11-.28-.32-.36s-1.22-.45-1.22-.45l-.75,1.97.37.13.27-.74.64.23.15.06s.05.4-.02.6c-.04.12-.08.22-.08.22l.35.15s.16-.34.15-.59c0-.25-.05-.36-.05-.36Zm-.08-.4c-.1.03-.32-.06-.32-.06l-.61-.23s.13-.35.19-.51c.09.04.58.21.59.22.1.04.21.08.21.08,0,0,.08.04.12.14.01.02.05.1,0,.2-.05.1-.14.16-.18.16Z"/><path id="_29" class="cls-7" d="m80.22,79.24s.27-.11.4-.35c.14-.24.04-.5,0-.58-.05-.08-.14-.27-.35-.33-.21-.06-1.26-.31-1.26-.31l-.53,2.04.38.09.19-.76.66.16.16.04m.23-.4c-.1.04-.32-.03-.32-.03l-.64-.16s.09-.36.13-.53c.09.03.6.15.61.15.1.03.22.05.22.05,0,0,.08.03.14.13.01.02.06.1.03.2-.04.1-.12.18-.17.18Z"/><path id="_28" class="cls-7" d="m88.08,81.91c-.05-.02-.11-.04-.17-.06-.17.31-.53.53-.86.31-.59-.41.13-1.47.73-1.06.14.1.21.23.22.38.09.04.19.06.28.1.04.02.08.04.11.05.03-.39-.15-.76-.48-.94-.47-.24-1.06-.02-1.33.5-.27.52-.11,1.13.36,1.37.47.24,1.06.02,1.33-.5.01-.02.02-.04.03-.06-.07-.03-.14-.06-.21-.09Z"/><polygon id="_27" class="cls-5" points="86.94 78.04 86.47 78.38 86.65 78.94 86.18 78.6 85.71 78.94 85.89 78.38 85.42 78.04 86 78.04 86.18 77.49 86.36 78.04 86.94 78.04"/><polygon id="_26" class="cls-5" points="60.22 80.93 60.78 81.34 60.57 82 61.13 81.59 61.69 82 61.47 81.34 62.03 80.93 61.34 80.93 61.13 80.28 60.91 80.93 60.22 80.93"/><polygon id="_25" class="cls-5" points="84.68 83.9 85.06 84.18 84.91 84.63 85.3 84.35 85.69 84.63 85.54 84.18 85.93 83.9 85.45 83.9 85.3 83.44 85.16 83.9 84.68 83.9"/><polygon id="_24" class="cls-5" points="64.86 89.1 65.1 89.27 65.01 89.55 65.24 89.38 65.48 89.55 65.39 89.27 65.62 89.1 65.33 89.1 65.24 88.82 65.15 89.1 64.86 89.1"/><polyline id="_23" class="cls-5" points="63.09 89.6 62.88 90.26 62.19 90.26 62.74 90.66 62.53 91.32 63.09 90.91 63.65 91.32 63.43 90.66 63.99 90.26 63.3 90.26 63.09 89.6"/><polygon id="_22" class="cls-5" points="59.62 92.3 60.09 92.64 59.91 93.18 60.37 92.84 60.84 93.18 60.66 92.64 61.13 92.3 60.55 92.3 60.37 91.75 60.2 92.3 59.62 92.3"/><polygon id="_21" class="cls-5" points="70.06 85.86 70.51 86.19 70.34 86.72 70.8 86.39 71.25 86.72 71.08 86.19 71.53 85.86 70.97 85.86 70.8 85.32 70.62 85.86 70.06 85.86"/><polygon id="_20" class="cls-5" points="67.08 92.48 67.5 92.78 67.34 93.28 67.76 92.97 68.18 93.28 68.02 92.78 68.44 92.48 67.92 92.48 67.76 91.98 67.6 92.48 67.08 92.48"/><polygon id="_19" class="cls-5" points="66.45 94.8 66.84 95.08 66.69 95.53 67.08 95.25 67.46 95.53 67.31 95.08 67.7 94.8 67.22 94.8 67.08 94.34 66.93 94.8 66.45 94.8"/><polygon id="_18" class="cls-5" points="69.44 96.57 70 96.97 69.79 97.63 70.35 97.22 70.91 97.63 70.69 96.97 71.25 96.57 70.56 96.57 70.35 95.91 70.13 96.57 69.44 96.57"/><polygon id="_17" class="cls-5" points="78.47 88.61 78.94 88.95 78.76 89.5 79.23 89.16 79.7 89.5 79.52 88.95 79.99 88.61 79.41 88.61 79.23 88.05 79.05 88.61 78.47 88.61"/><polygon id="_16" class="cls-5" points="76.36 90.6 76.75 90.88 76.6 91.34 76.99 91.06 77.37 91.34 77.23 90.88 77.61 90.6 77.14 90.6 76.99 90.15 76.84 90.6 76.36 90.6"/><polygon id="_15" class="cls-5" points="77.72 92.13 77.95 92.3 77.86 92.58 78.1 92.41 78.33 92.58 78.24 92.3 78.48 92.13 78.19 92.13 78.1 91.85 78.01 92.13 77.72 92.13"/><polygon id="_14" class="cls-5" points="81.03 90.54 81.5 90.88 81.32 91.44 81.79 91.09 82.26 91.44 82.08 90.88 82.55 90.54 81.97 90.54 81.79 89.99 81.62 90.54 81.03 90.54"/><polygon id="_13" class="cls-5" points="78.33 94.97 78.88 95.38 78.67 96.03 79.23 95.63 79.79 96.03 79.57 95.38 80.13 94.97 79.44 94.97 79.23 94.32 79.02 94.97 78.33 94.97"/><polygon id="_12" class="cls-5" points="78.93 102.46 79.1 102.59 79.04 102.8 79.22 102.67 79.39 102.8 79.33 102.59 79.5 102.46 79.28 102.46 79.22 102.25 79.15 102.46 78.93 102.46"/><polygon id="_11" class="cls-5" points="83.49 97.45 83.87 97.73 83.72 98.19 84.11 97.91 84.5 98.19 84.35 97.73 84.74 97.45 84.26 97.45 84.11 97 83.97 97.45 83.49 97.45"/><polygon id="_10" class="cls-5" points="85.1 99.89 85.57 100.23 85.39 100.78 85.86 100.44 86.33 100.78 86.15 100.23 86.62 99.89 86.04 99.89 85.86 99.34 85.68 99.89 85.1 99.89"/><polygon id="_9" class="cls-5" points="88.02 98.24 88.4 97.96 87.92 97.96 87.78 97.5 87.63 97.96 87.15 97.96 87.54 98.24 87.39 98.69 87.78 98.41 88.16 98.69 88.02 98.24"/><polygon id="_8" class="cls-5" points="89.62 97.22 90 97.5 89.86 97.96 90.24 97.68 90.63 97.96 90.48 97.5 90.87 97.22 90.39 97.22 90.24 96.77 90.09 97.22 89.62 97.22"/><polygon id="_7" class="cls-5" points="89.54 99.32 90.01 99.66 89.83 100.21 90.3 99.87 90.77 100.21 90.59 99.66 91.06 99.32 90.48 99.32 90.3 98.77 90.12 99.32 89.54 99.32"/><polygon id="_6" class="cls-5" points="89.73 101.63 90.11 101.92 89.97 102.37 90.35 102.09 90.74 102.37 90.59 101.92 90.98 101.63 90.5 101.63 90.35 101.18 90.21 101.63 89.73 101.63"/><polygon id="_5" class="cls-5" points="91.93 97.62 92.32 97.9 92.17 98.35 92.56 98.07 92.95 98.35 92.8 97.9 93.18 97.62 92.71 97.62 92.56 97.16 92.41 97.62 91.93 97.62"/><polyline id="_4" class="cls-5" points="93.57 96.47 94.04 96.81 93.86 97.36 94.33 97.02 94.8 97.36 94.62 96.81 95.09 96.47 94.51 96.47 94.33 95.92 94.16 96.47 93.59 96.47"/><polygon id="_3" class="cls-5" points="94.91 94.74 95.38 95.08 95.2 95.63 95.67 95.29 96.14 95.63 95.96 95.08 96.43 94.74 95.85 94.74 95.67 94.19 95.49 94.74 94.91 94.74"/><polygon id="_2" class="cls-5" points="93.86 92.68 94.42 93.09 94.2 93.75 94.76 93.34 95.32 93.75 95.11 93.09 95.67 92.68 94.98 92.68 94.76 92.03 94.55 92.68 93.86 92.68"/><polygon id="_1" class="cls-5" points="97.24 93.02 97.63 93.3 97.48 93.75 97.87 93.47 98.25 93.75 98.11 93.3 98.49 93.02 98.01 93.02 97.87 92.56 97.72 93.02 97.24 93.02"/></g></svg>