<?xml version="1.0" encoding="UTF-8"?><svg id="Layer_1" xmlns="http://www.w3.org/2000/svg" viewBox="0 0 165.99 166.54"><defs><style>.cls-1{fill:#00b0e2;}.cls-2{fill:#005789;stroke:#005789;stroke-miterlimit:10;}</style></defs><path class="cls-1" d="m22.49,131.55c-12.45-16-17.91-36.01-15.37-56.36,2.54-20.34,12.75-38.4,28.75-50.85s36.01-17.91,56.36-15.37c20.34,2.54,38.4,12.75,50.85,28.75,11.48,14.76,17.15,33.16,15.95,51.82-.08,1.24-1.15,2.18-2.38,2.1-1.24-.08-2.18-1.15-2.1-2.38,1.13-17.56-4.2-34.89-15.01-48.78-11.71-15.05-28.71-24.66-47.87-27.05s-37.99,2.75-53.04,14.46-24.66,28.71-27.05,47.87,2.75,37.99,14.46,53.04,28.71,24.66,47.87,27.05c19.15,2.39,37.99-2.75,53.04-14.46,9.14-7.11,16.5-16.44,21.29-26.97.51-1.13,1.84-1.63,2.97-1.11,1.13.51,1.63,1.84,1.11,2.97-5.09,11.2-12.91,21.11-22.62,28.66-16,12.45-36.02,17.91-56.36,15.37s-38.4-12.75-50.85-28.75Z"/><circle class="cls-1" cx="154.58" cy="102.94" r="2.39"/><path class="cls-2" d="m47.8,100.36c9.44,0,10.19-4.5,10.19-10.38,0-6.34-4.67-11.7-10.19-11.7s-10.19,5.36-10.19,11.7c0,5.88.75,10.38,10.19,10.38Zm0-19.43c4.01,0,7.53,4.23,7.53,9.05,0,5.22-.32,7.72-7.53,7.72s-7.53-2.51-7.53-7.72c0-4.82,3.52-9.05,7.53-9.05Z"/><path class="cls-2" d="m74.09,83.49c0,5.1.69,9.33,9.16,9.33s9.16-4.22,9.16-9.33c0-5.69-4.19-10.49-9.16-10.49s-9.16,4.81-9.16,10.49Zm15.66,0c0,4.62-.26,6.67-6.5,6.67s-6.5-2.04-6.5-6.67c0-4.17,3.04-7.84,6.5-7.84s6.5,3.66,6.5,7.84Z"/><path class="cls-2" d="m108.5,89.84c0,5.88.75,10.38,10.19,10.38s10.19-4.5,10.19-10.38c0-6.34-4.67-11.7-10.19-11.7s-10.19,5.36-10.19,11.7Zm10.19-9.05c4.01,0,7.53,4.23,7.53,9.05,0,5.22-.32,7.72-7.53,7.72s-7.53-2.51-7.53-7.72c0-4.82,3.52-9.05,7.53-9.05Z"/><path class="cls-2" d="m120.25,101.96c-2.07,0-4.08.75-5.65,2.1-.03.03-.06.05-.08.08l-8.21,7.28c-.11.09-.23.16-.37.18l-1.47.19-2.31-4.62c-.23-.45-.69-.73-1.19-.73h-2.67s0-3.19,0-3.19c0-3.41-2.22-6.42-5.41-7.32-6.4-1.8-12.89-1.8-19.3,0-3.19.89-5.41,3.9-5.41,7.32v3.19h-2.67c-.5,0-.96.28-1.19.74l-2.31,4.61-1.47-.19c-.14-.03-.27-.09-.37-.18l-8.21-7.28s-.06-.05-.08-.08c-1.57-1.36-3.57-2.1-5.65-2.1-4.76,0-8.63,3.87-8.63,8.63v14.9c0,.73.6,1.33,1.33,1.33s1.33-.6,1.33-1.33v-14.9c0-3.29,2.68-5.97,5.97-5.97,1.41,0,2.76.5,3.84,1.4.02.02.04.03.05.05l8.28,7.35c.49.43,1.08.71,1.72.82.02,0,.03,0,.05,0l9.96,1.26c.51.09.87.53.87,1.05,0,.59-.48,1.07-1.07,1.07h-11.22c-1.07,0-2.1-.34-2.96-.97l-7.19-5.26c-.59-.43-1.42-.31-1.86.29-.43.59-.31,1.42.29,1.86l3.89,2.85v9.12c0,.73.6,1.33,1.33,1.33s1.33-.6,1.33-1.33v-7.17l.64.47c1.07.79,2.31,1.27,3.61,1.42l-2.34,4.68c-.21.41-.18.9.06,1.29.24.39.67.63,1.13.63h53.17c.46,0,.89-.23,1.13-.63.24-.39.26-.88.06-1.29l-2.34-4.68c1.3-.16,2.54-.64,3.61-1.42l.64-.47v7.17c0,.73.6,1.33,1.33,1.33s1.33-.6,1.33-1.33v-9.12l3.89-2.85c.59-.43.72-1.27.29-1.86-.43-.59-1.27-.72-1.86-.29l-7.19,5.26c-.87.63-1.89.97-2.96.97h-11.22c-.59,0-1.07-.48-1.07-1.07,0-.52.37-.96.87-1.05l9.96-1.26s.03,0,.05,0c.64-.11,1.23-.39,1.72-.82l8.28-7.35s.04-.03.05-.05c1.07-.9,2.43-1.4,3.84-1.4,3.29,0,5.97,2.68,5.97,5.97v14.9c0,.73.6,1.33,1.33,1.33s1.33-.6,1.33-1.33v-14.9c0-4.76-3.87-8.63-8.63-8.63Zm-49.41,1.29c0-2.23,1.43-4.18,3.47-4.76,5.93-1.66,11.93-1.66,17.86,0,2.04.57,3.47,2.53,3.47,4.76v3.19h-2.96s0-3.1,0-3.1c0-.73-.6-1.33-1.33-1.33s-1.33.6-1.33,1.33v3.1h-13.57s0-3.1,0-3.1c0-.73-.6-1.33-1.33-1.33s-1.33.6-1.33,1.33v3.11h-2.96s0-3.19,0-3.19Zm25.13,9.62s-.03,0-.05,0c-1.81.3-3.12,1.85-3.12,3.68,0,2.06,1.67,3.73,3.73,3.73h9.2l1.94,3.89h-48.87s1.94-3.89,1.94-3.89h9.2c2.06,0,3.73-1.67,3.73-3.73,0-1.83-1.31-3.38-3.12-3.68-.02,0-.03,0-.05,0l-5.7-.72,1.52-3.04h33.81s1.52,3.04,1.52,3.04l-5.69.72Z"/><path class="cls-2" d="m59.31,64.8h1.1c1.15,1.71.98,3.78-.53,6.95-.23.48-.15,1.05.2,1.45.26.29.62.45,1,.45.14,0,.27-.02.4-.06,3.76-1.2,6.91-4.79,7.85-8.79h9.45l3.29,5.75c.24.41.68.67,1.15.67s.92-.26,1.15-.67l3.29-5.75h9.75c.92,4.09,3.9,7.62,7.57,8.79.13.04.27.06.4.06.38,0,.74-.16,1-.45.35-.4.43-.97.2-1.45-1.51-3.18-1.68-5.24-.53-6.95h1.09c4.64,0,8.42-3.78,8.42-8.42v-12.41c0-4.64-3.78-8.42-8.42-8.42h-47.85c-4.64,0-8.42,3.78-8.42,8.42v12.41c0,4.64,3.78,8.42,8.42,8.42Zm-5.76-20.83c0-3.18,2.58-5.76,5.76-5.76h47.85c3.18,0,5.76,2.58,5.76,5.76v12.41c0,3.18-2.58,5.76-5.76,5.76h-1.76c-.41,0-.77.19-1.01.48,0,0,0,0,0,0,0,.01-.02.02-.03.04-.02.03-.04.05-.06.08-1.72,2.12-1.87,4.4-1.4,6.54-1.59-1.51-2.75-3.68-3.03-5.97,0-.01,0-.03,0-.04,0-.06-.02-.12-.04-.17,0-.02-.01-.05-.02-.07-.02-.06-.05-.13-.08-.18,0-.01-.01-.03-.02-.04-.04-.07-.08-.13-.13-.19,0,0,0,0-.01-.01-.24-.28-.6-.46-1-.46h-11.63c-.4,0-.75.18-.99.46,0,0,0,0,0,0-.05.06-.1.13-.14.2,0,0,0,0,0,.01l-2.51,4.39-2.51-4.39s0,0,0-.01c-.04-.07-.09-.14-.14-.2,0,0,0,0,0,0-.24-.28-.6-.46-.99-.46h-11.33c-.49,0-.91.27-1.14.66,0,.01-.01.02-.02.03-.03.06-.06.12-.09.19,0,.02-.01.05-.02.07-.02.06-.03.11-.04.17,0,.02,0,.03-.01.04-.29,2.29-1.58,4.53-3.35,6.07.5-2.17.36-4.5-1.38-6.65-.02-.03-.04-.05-.06-.08,0-.01-.02-.02-.03-.03,0,0,0,0,0,0-.24-.29-.6-.48-1.01-.48h-1.77c-3.18,0-5.76-2.58-5.76-5.76v-12.41Z"/><path class="cls-2" d="m69.95,54.82c2.57,0,4.65-2.09,4.65-4.65s-2.09-4.65-4.65-4.65-4.65,2.09-4.65,4.65,2.09,4.65,4.65,4.65Zm0-6.65c1.1,0,1.99.89,1.99,1.99s-.89,1.99-1.99,1.99-1.99-.89-1.99-1.99.89-1.99,1.99-1.99Z"/><path class="cls-2" d="m83.25,54.82c2.57,0,4.65-2.09,4.65-4.65s-2.09-4.65-4.65-4.65-4.65,2.09-4.65,4.65,2.09,4.65,4.65,4.65Zm0-6.65c1.1,0,1.99.89,1.99,1.99s-.89,1.99-1.99,1.99-1.99-.89-1.99-1.99.89-1.99,1.99-1.99Z"/><path class="cls-2" d="m96.54,54.82c2.57,0,4.65-2.09,4.65-4.65s-2.09-4.65-4.65-4.65-4.65,2.09-4.65,4.65,2.09,4.65,4.65,4.65Zm0-6.65c1.1,0,1.99.89,1.99,1.99s-.89,1.99-1.99,1.99-1.99-.89-1.99-1.99.89-1.99,1.99-1.99Z"/></svg>