<?xml version="1.0" encoding="UTF-8"?><svg id="Layer_1" xmlns="http://www.w3.org/2000/svg" viewBox="0 0 163.38 166.54"><defs><style>.cls-1{fill:#00b0e2;}.cls-2{fill:#005789;stroke:#005789;stroke-miterlimit:10;stroke-width:2px;}</style></defs><path class="cls-1" d="m21.49,38.95c12.12-16.25,29.97-26.82,50.26-29.78,20.29-2.95,40.41,2.1,56.66,14.22,16.25,12.12,26.82,29.97,29.78,50.26,2.95,20.29-2.1,40.41-14.22,56.66-11.18,14.99-27.42,25.33-45.73,29.13-1.21.25-2.4-.53-2.65-1.74-.25-1.21.53-2.4,1.74-2.65,17.23-3.57,32.52-13.31,43.04-27.41,11.41-15.29,16.16-34.23,13.38-53.33-2.78-19.1-12.73-35.9-28.02-47.31s-34.23-16.16-53.33-13.38-35.9,12.73-47.31,28.02c-11.41,15.29-16.16,34.23-13.38,53.33,2.78,19.1,12.73,35.9,28.02,47.31,9.28,6.92,20.23,11.55,31.66,13.37,1.22.2,2.06,1.35,1.86,2.57-.19,1.22-1.35,2.06-2.57,1.86-12.15-1.94-23.78-6.85-33.63-14.21-16.25-12.12-26.83-29.97-29.78-50.26-2.95-20.29,2.1-40.41,14.22-56.66Z"/><circle class="cls-1" cx="84.12" cy="158.71" r="2.39"/><path class="cls-2" d="m82.48,94.25l1.63-.15s0-.85,0-.86c0,0-.02,0-.02,0-1.93-.49-4.41-.93-6.82-1.35-2.69-.48-5.47-.97-7.38-1.52-1.65-.48-2.81-2.02-2.81-3.74v-3.94l.4-.44c1.46-1.63,2.44-3.62,2.85-5.76.71-.16,1.6-.65,1.78-1.81.31-1.95.59-3,.79-3.77.22-.85.37-1.42.37-2.44,0-1.25-.31-2.06-.91-2.41-.06-.03-.13-.07-.21-.1.04-.88.07-1.69.11-2.46.11-2.36.19-4.23.19-6.07,0-.79-.14-7.82-4.88-9.94-3.26-1.46-5.38-1-6.2-.69-3.46-2.03-6.82-2.62-9.98-1.74-5.55,1.54-8.44,7.01-8.57,7.24-.11.21-.1.46.03.66.13.2.34.32.58.31l1.17-.04c-.85,6.77-.57,11.01-.39,12.67-.36-.03-.63.07-.79.16-.6.35-.91,1.16-.91,2.41,0,1.02.15,1.58.37,2.44.2.77.47,1.82.79,3.77.19,1.16,1.07,1.65,1.78,1.81.41,2.14,1.39,4.13,2.85,5.76l.4.44v3.94c0,1.73-1.16,3.26-2.81,3.74-2.11.61-4.91,1.24-7.62,1.85-1.93.44-3.93.89-5.64,1.32-3.06.78-5.43,3.16-6.18,6.2l-4.72,16.65c-.05.19-.02.4.11.56.12.16.31.25.51.25h14.37s.03,0,.05,0c.03,0,.06,0,.09,0l38.4-.02-.77-1.05m2.57-22.98c2.17.38,3.63.68,5.43,1.11l-8,21.87-13.82-.22.47-11.59s0-.1-.01-.14l-.93-4.93.96-2.76,2.9,2.46c.12.1.26.15.41.15.05,0,.1,0,.15-.02.2-.05.36-.18.44-.37l3.24-7.66c.38.24.8.42,1.25.55,1.97.57,4.79,1.07,7.51,1.55Zm-22.13-6.92s.05.02.07.03c1.02.41,2.12.61,3.21.61,1.21,0,2.42-.25,3.54-.75.03-.01.05-.02.08-.04l4-2.48v3.03c0,.12,0,.23.01.35l-7.94,5.14-7.94-5.14c0-.12.01-.23.01-.35v-3.1l4.95,2.69Zm4.04,6.72l7.14-4.63c.25.71.65,1.35,1.16,1.89l-3.05,7.2-5.26-4.46Zm-9.28-4.63l7.14,4.63-5.26,4.46-3.07-7.18c.53-.54.93-1.19,1.19-1.91Zm8.21,5.39l2.22,1.89-1.02,2.96h-2.44l-1.02-2.93,2.25-1.91Zm-2.01,10.62l.85-4.5h2.29l.85,4.5-.47,11.57h-3.04s-.47-11.57-.47-11.57Zm-4.14-58.01c2.88-.8,5.99-.21,9.23,1.77.21.13.47.13.68,0,.02-.01,1.86-.98,5.38.59,3.23,1.44,4.1,6.17,4.1,8.73,0,1.82-.09,3.67-.19,6.01,0,.04,0,.08,0,.12l-1.96-4.72c-1.2-3.38-4.39-5.62-7.94-5.62-.05,0-.09,0-.14,0-2.24-.05-4.5.43-6.52,1.39l-1.65.79c.41-1.13.16-1.44.02-1.61-.23-.27-.59-.37-.97-.24-2.68.85-4.89,2.8-6.05,5.36-.02.05-.04.1-.05.16l-.29,1.59c.05-2.12.22-4.8.65-8.02.03-.19-.03-.39-.17-.53-.13-.14-.32-.23-.52-.22l-.72.03c1.07-1.58,3.5-4.55,7.12-5.56Zm-5.11,29.48c-.05-.31-.32-.54-.63-.54h0s-.94,0-1.07-.8c-.32-2.01-.61-3.09-.81-3.89-.21-.81-.33-1.26-.33-2.12,0-.97.21-1.28.27-1.31.02,0,.1,0,.25.09.22.13.49.11.69-.03.31-.01.57-.23.62-.54l1.32-7.3c.91-1.93,2.5-3.46,4.45-4.29-.16.4-.4.91-.66,1.38-.14.25-.1.56.1.77.2.21.51.27.77.14l3.33-1.58c1.84-.87,3.88-1.32,5.95-1.26.04,0,.08,0,.12,0,3.01,0,5.7,1.89,6.73,4.77l2.91,7.01c-.15.2-.17.47-.04.7.18.3.57.41.87.23.03-.02.05-.03.08-.04,0,0,.02,0,.02,0,.05,0,.09-.03.14-.05,0,0,0,0,.01,0,.06.03.27.33.27,1.31,0,.86-.12,1.31-.33,2.12-.21.79-.49,1.88-.81,3.89-.12.75-.91.8-1.07.8h0c-.32,0-.58.23-.63.54-.31,2.08-1.21,4.01-2.62,5.58l-.52.59-4.83,2.99c-1.79.79-3.86.83-5.68.11l-5.74-3.12-.51-.57c-1.4-1.57-2.31-3.5-2.62-5.58Zm-8.09,17.65c2.73-.62,5.55-1.25,7.69-1.87.44-.13.85-.31,1.22-.54l3.27,7.65c.08.19.24.32.44.37.05.01.1.02.15.02.15,0,.3-.05.41-.15l2.87-2.43.95,2.74-.93,4.93s-.01.1-.01.14l.47,11.59h-17.78s-3.78-21.27-3.78-21.27c1.55-.38,3.32-.78,5.03-1.17Zm-10.86,6.6c.58-2.37,2.32-4.27,4.6-5.08l3.72,20.94h-12.81s4.49-15.86,4.49-15.86Z"/><path class="cls-2" d="m138.23,98.68c-.77-3.12-3.19-5.55-6.31-6.35-1.89-.48-4.02-.91-6.07-1.33-1.66-.34-3.36-.68-4.91-1.05-.06-.6-.14-1.21-.26-1.8,3.25-.19,6.81-1.27,8.04-5.57.09-.33-.09-.67-.42-.78-.33-.11-.68.06-.8.38,0,.01-.49,1.24-2.9.49-1.42-.44-1.47-1.97-.18-6.56,2.05-7.33,2-13.41-.16-19.13-2.15-5.7-5.27-9.33-9.29-10.81-4.91-1.8-9.47.25-10.46.76-1.45-.17-9.25-.54-13.77,9.92-2.3,5.33-.6,10.94,1.04,16.36.29.95.58,1.93.85,2.89.99,3.54.41,5.67-1.73,6.33-1.55.48-2.16.47-2.35.45-.15-.2-.41-.29-.66-.22-.29.07-.49.34-.48.64,0,.14.06.29.14.41,1.61,3.06,4.6,4.6,8.91,4.6.09,0,.18,0,.27,0-.18.49-.34.98-.48,1.48-.9.25-1.83.51-2.77.76,0,0,0,0-.01,0-2.69.73-5.47,1.44-7.99,2.08-3.13.79-5.55,3.23-6.31,6.33l-4.68,17.15c-.11.11-.18.27-.18.44,0,.35.29.64.64.64h68.17c.2,0,.39-.1.51-.26s.16-.37.1-.57l-5.49-17.69Zm-15.62-7.04l.58,5.7-2.38.9c-.22.08-.38.29-.41.52-.03.24.08.47.28.6l2.44,1.66c-2.32,6.86-7.82,13.9-8.62,14.9h-2.16l3.09-17.42,1.19-2.95c.04.28.08.57.09.87.03.76.55,1.36,1.3,1.49.73.13,1.42-.25,1.7-.94l.99-2.4s.02-.06.03-.1c.2-.84.29-1.98.26-3.2.52.12,1.06.24,1.6.36Zm-16.87,24.28l-3.14-17.7s-.02-.09-.04-.13l-1.84-4.56c.28-.47.64-.89,1.08-1.26l2.98-1.36,3.01,9.76s0,0,0,0c.02.06.05.11.08.16,0,.01.01.02.02.03.04.05.08.09.12.12,0,0,.01,0,.02.01.04.03.09.05.14.07.01,0,.02,0,.03.01,0,0,.01,0,.02,0,.05.01.11.02.16.02,0,0,0,0,0,0h0s0,0,0,0c0,0,0,0,0,0,.06,0,.12,0,.18-.03,0,0,0,0,.01,0,0,0,.01,0,.02,0,.05-.02.1-.05.15-.08,0,0,.02-.01.02-.02.05-.04.09-.08.12-.13,0-.01.01-.02.02-.03.03-.05.06-.11.08-.17,0,0,0,0,0,0l2.63-9.97,3.2,1.58c.49.4.87.87,1.16,1.41l-1.78,4.42s-.03.08-.04.13l-3.14,17.7h-5.31Zm-5.59-30.88l4,4.75-2.95,1.35s-.09.05-.14.08c-1.62,1.31-2.41,3.16-2.4,5.65,0,.11-.05.17-.15.19-.14.03-.18-.07-.19-.11l-1.16-2.81c-.6-2.7,1.31-7.71,3.01-9.1Zm-3.85-18.98s.07.03.12.06c.22.14.51.13.72-.03.21-.16.3-.42.24-.68-.07-.27-.13-.56-.18-.86,1.45-.64,5.58-2.87,6.98-7.93,1.72,2.2,6.18,6.44,15.53,7.3-.07.64-.18,1.14-.27,1.49-.07.25.03.52.24.68.21.16.5.17.72.03.06-.03.1-.05.12-.06.06.08.2.38.2,1.21s-.1,1.25-.29,2.02c-.18.75-.43,1.79-.71,3.7-.1.66-.69.72-.86.73h0c-.32,0-.59.24-.63.55-.27,1.98-1.06,3.82-2.3,5.31l-.46.56-4.31,2.89c-1.56.74-3.37.78-4.96.11l-4.88-3.05-.42-.51c-1.23-1.49-2.02-3.33-2.3-5.31-.04-.31-.32-.55-.63-.55-.18,0-.77-.06-.87-.73-.28-1.91-.53-2.94-.71-3.7-.19-.77-.29-1.2-.29-2.02s.15-1.12.2-1.21Zm9.26,18.18s.06.03.08.04c.93.4,1.91.6,2.9.6,1.09,0,2.19-.25,3.2-.74.03-.01.05-.03.08-.04l2.81-1.88v3.34c0,.18.01.35.03.52l-3.82,3.17c-.07.06-.13.13-.17.21,0,0,0,0,0,0,0,0,0,0,0,0,0,0,0,0,0,0,0,0,0,0,0,0,0,0,0,0,0,0-.02.04-.04.08-.05.13l-2.26,8.55-2.56-8.32s-.02-.06-.03-.09c-.03-.06-.06-.11-.1-.16l-3.85-4.58v-3.12l3.76,2.34Zm13.95,9.9l-.97,2.35c-.07.17-.2.19-.3.17-.07-.01-.24-.07-.25-.29-.09-2.24-.88-3.92-2.39-5.15-.04-.03-.08-.05-.12-.08l-3.08-1.53,5.57-4.63c1.48,1.29,2.19,6.3,1.55,9.15Zm-4.98-46.75c3.65,1.34,6.52,4.72,8.53,10.06,2.05,5.45,2.09,11.28.12,18.33-1.14,4.07-1.78,7.25,1.04,8.12.98.3,1.78.34,2.42.23-1.16,1.75-3.16,2.62-6.27,2.76-.46-1.53-1.17-2.79-2.18-3.27-.22-.11-.49-.07-.68.09l-1.61,1.34v-3.68l.35-.24c.07-.05.13-.11.18-.18l.47-.57c1.28-1.55,2.14-3.44,2.5-5.47.64-.17,1.41-.65,1.57-1.74.28-1.86.52-2.86.69-3.59.19-.81.32-1.35.32-2.32,0-1.25-.29-2.02-.87-2.34-.06-.04-.15-.07-.25-.1.09-.51.16-1.14.18-1.86,0-.35-.27-.65-.62-.65-.25-.02-.47.13-.58.35-10.79-.99-14.73-6.78-15.33-7.78l.7-6.85c1.09-.52,5.11-2.17,9.31-.63Zm-25.21,36.75c.49-.07,1.12-.21,1.96-.47,1.65-.51,4.17-2.21,2.58-7.89-.27-.97-.57-1.96-.86-2.92-1.57-5.2-3.2-10.59-1.09-15.49,3.89-9.01,10.1-9.34,12.01-9.21l-.69,6.76c-.95,6.43-6.7,8.54-6.96,8.63-.02,0-.03.02-.05.02-.02,0-.04.02-.06.03-.02.01-.04.03-.06.04-.01,0-.03.02-.04.03-.02.02-.04.04-.06.06,0,.01-.02.02-.03.03-.02.02-.03.04-.04.07,0,.01-.02.03-.02.04-.01.02-.02.04-.03.07,0,.02-.01.03-.02.05,0,.02,0,.05-.01.07,0,.02,0,.03,0,.05,0,.03,0,.06,0,.09,0,.01,0,.02,0,.04,0,0,0,0,0,0,0,0,0,0,0,0,.02.2.05.39.09.58-.1.03-.18.07-.25.1-.59.33-.87,1.09-.87,2.34,0,.97.13,1.51.32,2.32.17.73.41,1.73.69,3.59.16,1.09.93,1.57,1.57,1.74.36,2.03,1.22,3.92,2.5,5.47l.49.59s.02.01.02.02c.02.02.04.04.06.06.02.01.03.03.05.04,0,0,.02.01.02.02h0c-.01.06-.02.11-.02.17v2.34c-.16-.07-.35-.08-.52,0-.99.47-1.97,1.78-2.74,3.4-3.74.18-6.36-.77-7.95-2.89Zm6.6,10.34s.02.07.03.1l1.18,2.86c.27.66.92,1.01,1.62.87.7-.14,1.18-.73,1.18-1.45,0-.56.05-1.08.13-1.55l1.29,3.19,3.09,17.42h-2.16c-.8-1-6.3-8.04-8.62-14.9l2.44-1.66c.2-.13.3-.37.28-.6-.03-.24-.19-.44-.41-.52l-2.38-.9.64-5.67c.57-.16,1.14-.31,1.7-.47-.21,1.21-.24,2.36-.02,3.27Zm-15.52,4.81c.65-2.66,2.72-4.74,5.39-5.41,2.25-.57,4.71-1.2,7.12-1.85l-.64,5.66c-.03.29.14.57.41.67l1.69.64-1.82,1.24c-.23.16-.34.45-.25.72,2,6.29,6.57,12.63,8.36,14.96h-24.81l4.54-16.63Zm35.73,16.63c1.79-2.34,6.37-8.68,8.36-14.96.09-.27-.02-.56-.25-.72l-1.82-1.24,1.69-.64c.27-.1.44-.37.41-.66l-.59-5.78c.56.11,1.11.23,1.67.34,2.04.41,4.16.84,6.01,1.32,2.67.68,4.74,2.75,5.4,5.45l5.24,16.9h-26.12Z"/><path class="cls-2" d="m108.4,105.02c-.5,0-.91.41-.91.91s.41.91.91.91.91-.41.91-.91-.41-.91-.91-.91Z"/><path class="cls-2" d="m108.4,110.67c-.5,0-.91.41-.91.91s.41.91.91.91.91-.41.91-.91-.41-.91-.91-.91Z"/></svg>