<?xml version="1.0" encoding="UTF-8"?><svg id="Layer_1" xmlns="http://www.w3.org/2000/svg" viewBox="0 0 170.72 166.54"><defs><style>.cls-1{fill:#005789;}.cls-2{fill:#00b0e2;}.cls-3{fill:none;stroke:#005789;stroke-miterlimit:10;stroke-width:4px;}</style></defs><path class="cls-2" d="m75.67,8.83c20.11-2.55,40.11,2.97,56.31,15.53s26.53,30.55,29.07,50.67-2.97,40.11-15.53,56.32c-12.56,16.2-30.55,26.53-50.67,29.07-18.55,2.35-37.27-2.17-52.71-12.72-1.02-.7-1.29-2.1-.59-3.12.7-1.02,2.1-1.29,3.12-.59,14.53,9.93,32.15,14.18,49.61,11.97,18.92-2.4,35.86-12.12,47.68-27.37,11.83-15.25,17.02-34.08,14.62-53-2.4-18.92-12.12-35.86-27.37-47.68-15.25-11.83-34.08-17.02-53-14.62s-35.86,12.12-47.68,27.37c-11.83,15.25-17.02,34.08-14.62,53,1.45,11.48,5.72,22.58,12.34,32.07.71,1.02.46,2.42-.56,3.13-1.02.71-2.42.46-3.13-.56-7.03-10.09-11.56-21.88-13.11-34.08-2.55-20.11,2.97-40.11,15.53-56.32,12.56-16.2,30.55-26.53,50.67-29.07Z"/><circle class="cls-2" cx="32.89" cy="137.04" r="2.39"/><path class="cls-3" d="m61.64,131.64c-.05,0-.11,0-.16,0-.6,0-1.27-.07-1.74-.51-.48-.46-.57-1.15-.59-1.64-.06-1.27.19-2.52.42-3.73.2-1.02.4-2.07.42-3.11.07-3.44-1.81-6.98-5.58-10.52-.23-.22-.47-.44-.71-.66-1.92-1.77-3.9-3.6-4.43-6.14-.36-1.72.04-3.46.42-5.14.16-.72.33-1.46.44-2.19.63-4.36-.91-8.76-2.27-12.64l-4.02-11.48c-.94-2.67-2-5.7-1.81-8.77.17-2.85,1.73-6.18,4.83-7.21,2.11-.7,4.38-.14,6.38.34,5.48,1.33,11.72,2.49,16.46-.65,2.14-1.42,3.68-3.58,5.18-5.67,1.31-1.83,2.66-3.73,4.43-5.17,4.44-3.62,11.44-3.67,15.93-.12,3.27,2.59,5.01,6.53,6.68,10.34,1.64,3.74,3.34,7.61,6.49,10.12,1.72,1.37,3.8,2.27,5.82,3.14.82.35,1.67.72,2.49,1.12,3.64,1.76,5.88,3.97,6.66,6.56.26.86.35,1.77.44,2.64.07.67.14,1.36.28,2.02.3,1.36,1.14,2.94,2.61,3.27.38.08,1.25.21,2.18.34,1.28.18,2.61.37,3.13.52,2.92.84,4.76,2.16,6.37,4.57,1.91,2.85,1.49,6.77-.98,9.1-2.63,2.5-8.39,2.1-10.74,1.81-2.42-.3-3.02-.51-4.46-1.02-.47-.17-1.05-.37-1.82-.62-6.34-2.07-10.47-.29-15.87,3.72-1.17.87-1.97,2.11-2.82,3.43-1.47,2.29-2.99,4.65-6.62,5.03-.52.05-1.12.02-1.82-.02-.9-.05-1.92-.11-3.01.02-3.52.41-6.27,1.47-8.18,3.16-2.29,2.03-3.29,3.38-4.09,5.56-2.34,6.3-8.6,10.2-16.35,10.2Z"/><g id="Layer_33"><path class="cls-1" d="m79.28,79.59c.3,0,.5-.2.5-.5v-.4c0-.3-.2-.5-.5-.5s-.5.2-.5.5v.4c0,.3.2.5.5.5Z"/><path class="cls-1" d="m96.68,86.84c.4-.7.6-1.45.6-2.25v-8.5c0-3.6-2.9-6.5-6.5-6.5s-6.5,2.9-6.5,6.5v7.55c-.15,0-.35-.05-.5-.05-1.75,0-3.25,1-4,2.4l-.55-.15-.45-.45v-.2c1.8-.8,3-2.6,3-4.6v-.05c.85-.2,1.5-1,1.5-1.95s-.65-1.7-1.5-1.95v-4.05c0-.85-.65-1.5-1.5-1.5,0-.8-.65-1.5-1.5-1.5h-3.85c-2.55,0-4.65,2.1-4.65,4.65,0,1,.45,1.9,1.15,2.55-.65.3-1.15,1-1.15,1.8,0,.95.65,1.7,1.5,1.95v.05c0,2,1.2,3.8,3,4.6v.2l-.45.45-3.25.95c-1.95.55-3.3,2.3-3.3,4.3v8c0,1.4,1.1,2.5,2.5,2.5h27c1.4,0,2.5-1.1,2.5-2.5v-8c0-1.9-1.25-3.65-3.1-4.25Zm2.1,4.25v2.5h-2v-1.5c0-.3-.2-.5-.5-.5s-.5.2-.5.5v2h0v3c0,.2-.1.4-.2.5h-3.6c-.35-.6-1-1-1.75-1-.35,0-.65.1-.95.25-.75-.7-1.7-1.15-2.8-1.2.9-.7,1.55-1.8,1.7-3h.1c.85,0,1.5-.65,1.5-1.5s-.65-1.5-1.5-1.5v-1.5c0-.4-.05-.8-.15-1.15l.75-.2c.25.8,1,1.35,1.9,1.35s1.65-.55,1.9-1.35l3.55,1c1.5.4,2.55,1.75,2.55,3.3Zm-22.5,8.5v-1c0-.55.45-1,1-1s1,.45,1,1v1c0,.55-.45,1-1,1s-1-.45-1-1Zm7.5-2c-.55,0-1-.45-1-1v-.1c.3.05.65.1,1,.1s.7-.05,1-.1v.1c0,.55-.45,1-1,1Zm4.5-6v-1c.3,0,.5.2.5.5s-.2.5-.5.5Zm1.15-7.25c-1.6-.55-2.65-2.05-2.65-3.75v-.5c0-.3-.2-.5-.5-.5-.55,0-1-.45-1-1s.45-1,1-1h2c1.35,0,2.65-.6,3.5-1.65.85,1.05,2.15,1.65,3.5,1.65.55,0,1,.45,1,1s-.45,1-1,1c-.3,0-.5.2-.5.5v.5c0,1.7-1.05,3.2-2.65,3.75-.2.05-.35.25-.35.45v1.3c0,.55-.45,1-1,1s-1-.45-1-1v-1.25c0-.2-.15-.4-.35-.5Zm-5.65,5.45l.05.05c.45.45,1.1.75,1.75.75h1.7v1.5c0,1.95-1.55,3.5-3.5,3.5s-3.5-1.55-3.5-3.5v-1.5h1.65c.65,0,1.3-.25,1.75-.75l.1-.05Zm-11-9.2v-3.1c.25.05.55.1.85.1,1.9,0,3.75-.55,5.3-1.65.3.8,1,1.4,1.85,1.55v3.1c0,.2,0,.35-.05.5l-.6-.5c-.45-.35-1-.55-1.55-.55h-3.6c-.55,0-1.1.2-1.55.55l-.6.5c-.05-.15-.05-.3-.05-.5Zm4,5.8l-.85-.85c.3.05.6.1.85.1.3,0,.6-.05.9-.1l-.9.85Zm0-2.8c-.45,0-.9-.2-1.35-.65-.2-.2-.2-.5,0-.7s.5-.2.7,0c.45.45.8.45,1.3,0,.2-.2.5-.2.7,0s.2.5,0,.7c-.45.45-.9.65-1.35.65Zm5.5-5c0,.35-.2.7-.5.85v-1.75c.3.2.5.55.5.9Zm-11,0c0-.35.2-.7.5-.85v1.75c-.3-.2-.5-.55-.5-.9Zm-2.5,20.5v-8c0-1.55,1.05-2.95,2.55-3.35l2.6-.75.9,2.25c.05.15.2.3.4.3h.05c.15,0,.3-.05.4-.2l1.1-1.45,1.1,1.45c.1.15.25.2.4.2h.05c.2,0,.35-.15.4-.3l.55-1.35v1.7c-.85,0-1.5.65-1.5,1.5s.65,1.5,1.5,1.5h.05c.15,1.25.75,2.3,1.7,3.05-1.1.05-2.05.5-2.8,1.2-.3-.15-.6-.25-.95-.25-.75,0-1.35.4-1.7,1h-3.3c-.3,0-.5-.2-.5-.5v-5c0-.3-.2-.5-.5-.5s-.5.2-.5.5v5c0,.85.65,1.5,1.5,1.5h3v1c0,.35.1.7.3,1h-5.3c-.85,0-1.5-.65-1.5-1.5Zm10.5-8.5v1c-.3,0-.5-.2-.5-.5s.2-.5.5-.5Zm19.5,8.5c0,.85-.65,1.5-1.5,1.5h-7c-.55,0-1-.45-1-1v-1c0-.55.45-1,1-1,.4,0,.8.25.95.65.05.2.25.35.45.35h4.1c.45,0,1-.8,1-1.5v-2.5h2v4.5Z"/><path class="cls-1" d="m88.28,78.09c-.3,0-.5.2-.5.5v.5c0,.3.2.5.5.5s.5-.2.5-.5v-.5c0-.3-.2-.5-.5-.5Z"/><path class="cls-1" d="m93.28,79.59c.3,0,.5-.2.5-.5v-.5c0-.3-.2-.5-.5-.5s-.5.2-.5.5v.5c0,.3.2.5.5.5Z"/><path class="cls-1" d="m92.13,82.94c.2-.2.2-.5,0-.7s-.5-.2-.7,0c-.45.45-.8.45-1.3,0-.2-.2-.5-.2-.7,0s-.2.5,0,.7c.45.45.9.65,1.35.65s.9-.2,1.35-.65Z"/><path class="cls-1" d="m81.28,91.59v.4c0,.3.2.5.5.5s.5-.2.5-.5v-.4c0-.3-.2-.5-.5-.5s-.5.2-.5.5Z"/><path class="cls-1" d="m85.78,92.49c.3,0,.5-.2.5-.5v-.4c0-.3-.2-.5-.5-.5s-.5.2-.5.5v.4c0,.3.2.5.5.5Z"/><path class="cls-1" d="m82.43,94.44c.45.45.9.65,1.35.65s.9-.2,1.35-.65c.2-.2.2-.5,0-.7s-.5-.2-.7,0c-.45.45-.8.45-1.3,0-.2-.2-.5-.2-.7,0s-.2.5,0,.7Z"/><path class="cls-1" d="m74.28,79.59c.3,0,.5-.2.5-.5v-.5c0-.3-.2-.5-.5-.5s-.5.2-.5.5v.5c0,.3.2.5.5.5Z"/></g></svg>