<?xml version="1.0" encoding="UTF-8"?><svg id="Layer_1" xmlns="http://www.w3.org/2000/svg" viewBox="0 0 162.73 166.54"><defs><style>.cls-1,.cls-2{fill:#005789;}.cls-3{fill:#00b0e2;}.cls-2{stroke:#005789;stroke-miterlimit:10;stroke-width:2px;}</style></defs><path class="cls-3" d="m145.18,41.76c11.37,16.78,15.51,37.11,11.64,57.24s-15.24,37.48-32.02,48.86-37.11,15.51-57.24,11.64c-20.13-3.87-37.48-15.24-48.86-32.02-10.49-15.48-14.94-34.21-12.51-52.76.16-1.23,1.29-2.1,2.52-1.94,1.23.16,2.1,1.29,1.94,2.52-2.28,17.45,1.9,35.09,11.78,49.66,10.7,15.79,27.03,26.49,45.99,30.13,18.95,3.64,38.09-.25,53.88-10.95,15.79-10.7,26.49-27.03,30.13-45.99s-.25-38.09-10.95-53.88c-10.7-15.79-27.03-26.49-45.99-30.13-18.95-3.64-38.09.25-53.88,10.95-9.58,6.49-17.54,15.32-23.02,25.52-.59,1.09-1.95,1.5-3.04.92-1.09-.58-1.5-1.95-.92-3.04,5.82-10.84,14.27-20.21,24.45-27.11,16.78-11.37,37.11-15.51,57.24-11.64,20.13,3.87,37.48,15.24,48.86,32.02Z"/><circle class="cls-3" cx="11.5" cy="61.65" r="2.39"/><path class="cls-2" d="m96.5,70.72c0-14.23-13.44-25.81-29.96-25.81s-29.96,11.58-29.96,25.81c0,9.85,6.63,18.94,16.91,23.23,1.81,2.3,1.72,5.01-.3,9.28-.19.39-.12.85.16,1.18.21.24.51.37.82.37.11,0,.22-.02.33-.05,5.05-1.61,7.94-4.35,8.81-8.35,1.07.1,2.16.15,3.24.15,16.52,0,29.96-11.58,29.96-25.81Zm-29.96,23.64c-1.34,0-2.68-.08-4-.24-.59-.07-1.13.35-1.21.94h0c-.38,3.03-2.04,5.2-5.19,6.7,1.05-2.99,1.39-6.37-1.16-9.39h0c-.11-.13-.25-.24-.42-.3-9.61-3.91-15.83-12.29-15.83-21.34,0-13.04,12.47-23.64,27.79-23.64s27.8,10.61,27.8,23.64-12.47,23.64-27.8,23.64Z"/><path class="cls-1" d="m55.71,66.93c-2.09,0-3.79,1.7-3.79,3.79s1.7,3.79,3.79,3.79,3.79-1.7,3.79-3.79-1.7-3.79-3.79-3.79Zm0,5.41c-.9,0-1.62-.73-1.62-1.62s.73-1.62,1.62-1.62,1.62.73,1.62,1.62-.73,1.62-1.62,1.62Z"/><path class="cls-1" d="m66.54,66.93c-2.09,0-3.79,1.7-3.79,3.79s1.7,3.79,3.79,3.79,3.79-1.7,3.79-3.79-1.7-3.79-3.79-3.79Zm0,5.41c-.9,0-1.62-.73-1.62-1.62s.73-1.62,1.62-1.62,1.62.73,1.62,1.62-.73,1.62-1.62,1.62Z"/><path class="cls-1" d="m77.36,66.93c-2.09,0-3.79,1.7-3.79,3.79s1.7,3.79,3.79,3.79,3.79-1.7,3.79-3.79-1.7-3.79-3.79-3.79Zm0,5.41c-.9,0-1.62-.73-1.62-1.62s.73-1.62,1.62-1.62,1.62.73,1.62,1.62-.73,1.62-1.62,1.62Z"/><path class="cls-2" d="m111.17,68.26c-3.36-2.09-7.06-3.2-10.77-3.41.24.81.43,1.64.59,2.48,3.07.28,6.12,1.24,8.9,2.98,9.59,5.97,12.53,18.62,6.57,28.21-5.97,9.59-18.62,12.53-28.21,6.57-2.98-1.85-5.31-4.35-6.94-7.2-.76.28-1.54.53-2.33.76,1.83,3.37,4.52,6.32,8,8.48,4.99,3.11,10.72,4.02,16.09,3.07l6.42,27.55c.08.32.27.59.54.75.26.16.59.23.91.15.65-.15,1.05-.8.9-1.45l-6.42-27.55c5.25-1.51,9.98-4.87,13.08-9.86,6.67-10.72,3.37-24.86-7.34-31.53Z"/></svg>