<?xml version="1.0" encoding="UTF-8"?><svg id="Layer_1" xmlns="http://www.w3.org/2000/svg" viewBox="0 0 167.47 166.54"><defs><style>.cls-1{fill:#00b0e2;}.cls-2{fill:#005789;stroke:#005789;stroke-linejoin:round;stroke-width:2px;}</style></defs><path class="cls-1" d="m143.97,130.9c-12.28,16.13-30.23,26.53-50.54,29.29-20.31,2.75-40.39-2.49-56.52-14.77-16.13-12.28-26.53-30.23-29.29-50.54-2.75-20.31,2.49-40.39,14.77-56.52,11.33-14.88,27.67-25.07,46.01-28.68,1.22-.24,2.4.55,2.64,1.77.24,1.22-.55,2.4-1.77,2.64-17.27,3.4-32.65,12.99-43.31,27-11.55,15.18-16.49,34.07-13.89,53.2,2.59,19.13,12.38,36.02,27.56,47.57,15.18,11.55,34.07,16.49,53.2,13.89,19.13-2.59,36.02-12.38,47.57-27.56,11.55-15.18,16.49-34.07,13.89-53.2-2.59-19.13-12.38-36.02-27.56-47.57-9.21-7.01-20.11-11.74-31.53-13.68-1.22-.21-2.05-1.37-1.84-2.59.21-1.22,1.37-2.05,2.59-1.84,12.13,2.06,23.71,7.08,33.49,14.53,16.13,12.28,26.53,30.23,29.29,50.54,2.75,20.31-2.49,40.39-14.77,56.52Z"/><circle class="cls-1" cx="82.5" cy="10.54" r="2.39"/><path class="cls-2" d="m97.89,98.42l10.49,5.66-10.21,2.34c-.08.02-.16.05-.23.09l-10.54,5.63c-.58.31-1.24.55-1.96.71l12.45-14.43Zm-26.48-56.14c3.24-3.34,7.56-5.17,12.17-5.17s8.92,1.84,12.16,5.17c3.82,3.93,5.82,9.59,5.64,15.96-.01.39-.04.76-.07,1.11-18.62-1.48-24.35-11.37-24.41-11.47-.2-.35-.59-.55-.99-.48-.4.07-.71.38-.77.78-1.18,7.41-6.82,10.74-9.22,11.83-.07-.52-.13-1.12-.15-1.78-.18-6.36,1.82-12.03,5.64-15.96Zm-1.98,36.37c-.61-1.29-1.02-2.67-1.23-4.08-.07-.47-.47-.81-.94-.81h0s-1.23,0-1.39-1.03c-.45-2.76-.83-4.25-1.11-5.34-.29-1.11-.45-1.72-.45-2.89s.25-1.67.31-1.72c0,0,.1,0,.3.11.34.19.75.16,1.06-.07.27-.22.4-.56.34-.9,2.25-.96,8.17-4.11,10.23-11.31,2.63,3.16,9.63,9.41,24.47,10.62-.05.22-.1.41-.15.58-.11.37.02.77.33,1.01.3.24.72.27,1.06.07.18-.1.27-.11.27-.12.09.08.33.53.33,1.73s-.16,1.78-.45,2.89c-.28,1.09-.67,2.58-1.11,5.34-.16.97-1.19,1.03-1.39,1.03-.48-.03-.88.34-.95.81-.14.96-.38,1.91-.71,2.82-.95,2.64-3.07,4.77-5.8,5.85,0,0,0,0-.01,0-.05.02-.1.05-.15.08l-4.99,3.2c-2.06.9-4.42.94-6.51.13l-6.49-3.5s-.04-.01-.06-.02c0,0-.02-.01-.03-.02-2.15-.91-3.85-2.49-4.78-4.47Zm5.36,11.09v-4.16s5.14,2.77,5.14,2.77c.03.02.07.03.1.05,1.23.49,2.54.74,3.85.74,1.45,0,2.91-.3,4.25-.9.04-.02.09-.04.13-.07l3.59-2.3v4.01c0,2.64,1.8,6.17,4.3,7.68l-12.97,15.03-13.48-15.99c3.01-.9,5.1-3.71,5.1-6.86Zm6.1,23.07c-.58-.15-1.11-.36-1.56-.61l-10.15-5.68c-.05-.03-.1-.05-.16-.07l-9.66-3.26,8.53-5.79,12.99,15.41Zm-42.07,17.26l7.53-22.2c.87-3.54,3.61-6.3,7.16-7.2,2.01-.51,4.02-.99,5.99-1.47,1.25-.3,2.47-.6,3.68-.89l-6.46,4.38c-.3.2-.46.56-.41.91.05.36.3.66.64.77l11.38,3.84,10.07,5.64c1.31.73,3,1.14,4.77,1.14,1.89,0,3.72-.42,5.14-1.18l10.43-5.57,12.54-2.88c.38-.09.67-.41.73-.8.05-.39-.14-.77-.49-.96l-8.49-4.58c1.06.09,2.14.15,3.25.21,2.95.17,6,.34,8.67,1.02,3.55.9,6.3,3.66,7.18,7.25l6.99,22.54h1.99l-7.15-23.05c-1.04-4.22-4.31-7.51-8.54-8.58-2.84-.72-5.99-.9-9.03-1.08-3.09-.18-6.01-.34-8.44-1.05-2.27-.65-4.21-4.08-4.21-6.43v-5.12c2.95-1.34,5.23-3.76,6.29-6.71.29-.81.52-1.64.68-2.48.99-.23,2.2-.93,2.46-2.53.43-2.67.8-4.11,1.08-5.17.3-1.18.51-1.95.51-3.36,0-1.75-.43-2.88-1.29-3.37-.11-.07-.27-.14-.46-.19.14-.73.25-1.63.28-2.65.2-6.88-2-13.04-6.18-17.33-3.6-3.71-8.41-5.75-13.52-5.75s-9.92,2.04-13.52,5.75c-4.18,4.3-6.37,10.45-6.18,17.33.03,1.03.14,1.92.28,2.65-.19.05-.34.12-.46.19-.85.49-1.29,1.63-1.29,3.37,0,1.41.2,2.19.51,3.36.27,1.05.65,2.49,1.08,5.17.26,1.6,1.46,2.3,2.45,2.53.26,1.34.69,2.65,1.27,3.89,1.04,2.22,2.87,4.03,5.18,5.15v5.13c0,2.33-1.56,4.42-3.8,5.06-3.17.91-6.51,1.72-10.04,2.56-1.98.48-3.99.96-6.02,1.47-4.23,1.07-7.5,4.36-8.53,8.56l-7.65,22.64,1.96.03Z"/></svg>