<?xml version="1.0" encoding="UTF-8"?><svg id="Layer_1" xmlns="http://www.w3.org/2000/svg" viewBox="0 0 167.64 163.88"><defs><style>.cls-1{fill:#00b0e2;}.cls-2{fill:none;stroke:#005789;stroke-miterlimit:10;stroke-width:4px;}</style></defs><path class="cls-1" d="m84.27,157.56c-20.27,0-39.42-7.98-53.92-22.48-14.5-14.5-22.48-33.64-22.48-53.92s7.98-39.42,22.48-53.92C44.84,12.75,63.99,4.76,84.27,4.76c18.7,0,36.7,6.83,50.69,19.24.93.82,1.01,2.24.19,3.17-.82.93-2.24,1.01-3.17.19-13.17-11.68-30.11-18.11-47.71-18.11-19.07,0-37.1,7.52-50.74,21.16-13.65,13.65-21.16,31.67-21.16,50.74s7.52,37.1,21.16,50.74,31.67,21.16,50.74,21.16,37.1-7.52,50.74-21.16,21.16-31.67,21.16-50.74c0-11.58-2.84-23.11-8.21-33.37-.58-1.1-.15-2.46.95-3.03,1.1-.58,2.45-.15,3.03.95,5.71,10.89,8.72,23.15,8.72,35.45,0,20.27-7.98,39.42-22.48,53.92-14.5,14.5-33.64,22.48-53.92,22.48Z"/><circle class="cls-1" cx="142.81" cy="35.74" r="2.39"/><path class="cls-2" d="m38.54,110.44h84.06c.12,0,.22.1.22.22v7.92c0,.12-.1.22-.22.22H38.54c-.12,0-.22-.1-.22-.22v-7.92c0-.12.1-.22.22-.22Z"/><path class="cls-2" d="m53.99,110.44v-11.77c0-1.19-.97-2.16-2.16-2.16h-6.36c-1.19,0-2.16.97-2.16,2.16v11.77"/><path class="cls-2" d="m64.65,110.44v-32.51c0-1.19.97-2.16,2.16-2.16h6.36c1.19,0,2.16.97,2.16,2.16v32.51"/><path class="cls-2" d="m85.99,110.44v-22.43c0-1.19.97-2.16,2.16-2.16h6.36c1.19,0,2.16.97,2.16,2.16v22.43"/><path class="cls-2" d="m107.34,110.44v-47.02c0-1.19.97-2.16,2.16-2.16h6.36c1.19,0,2.16.97,2.16,2.16v47.02"/><line class="cls-2" x1="94.45" y1="63.81" x2="109.62" y2="46.25"/><line class="cls-2" x1="74.27" y1="59.83" x2="87.01" y2="65.5"/><line class="cls-2" x1="52.24" y1="77.76" x2="66.87" y2="61.42"/><path class="cls-2" d="m74.67,57.93c0,2.59-2.1,4.68-4.68,4.68s-4.68-2.1-4.68-4.68,2.1-4.68,4.68-4.68,4.68,2.1,4.68,4.68Z"/><path class="cls-2" d="m53.99,81.4c0,2.59-2.1,4.68-4.68,4.68s-4.68-2.1-4.68-4.68,2.1-4.68,4.68-4.68,4.68,2.1,4.68,4.68Z"/><path class="cls-2" d="m96.02,67.29c0,2.59-2.1,4.68-4.68,4.68s-4.68-2.1-4.68-4.68,2.1-4.68,4.68-4.68,4.68,2.1,4.68,4.68Z"/><path class="cls-2" d="m117.36,42.71c0,2.59-2.1,4.68-4.68,4.68s-4.68-2.1-4.68-4.68,2.1-4.68,4.68-4.68,4.68,2.1,4.68,4.68Z"/></svg>