<?xml version="1.0" encoding="UTF-8"?><svg id="Layer_1" xmlns="http://www.w3.org/2000/svg" viewBox="0 0 165.48 163.88"><defs><style>.cls-1{fill:#00b0e2;}.cls-2{fill:#005789;stroke:#005789;stroke-miterlimit:10;stroke-width:2px;}</style></defs><path class="cls-1" d="m22.56,128.08c-12.45-16-17.91-36.01-15.37-56.36,2.54-20.34,12.75-38.4,28.75-50.85,16-12.45,36.01-17.91,56.36-15.37,20.34,2.54,38.4,12.75,50.85,28.75,11.48,14.76,17.15,33.16,15.95,51.82-.08,1.24-1.15,2.18-2.38,2.1-1.24-.08-2.18-1.15-2.1-2.38,1.13-17.56-4.2-34.89-15.01-48.78-11.71-15.05-28.71-24.66-47.87-27.05-19.15-2.39-37.99,2.75-53.04,14.46-15.05,11.71-24.66,28.71-27.05,47.87s2.75,37.99,14.46,53.04c11.71,15.05,28.71,24.66,47.87,27.05,19.15,2.39,37.99-2.75,53.04-14.46,9.14-7.11,16.5-16.44,21.29-26.97.51-1.13,1.84-1.63,2.97-1.11,1.13.51,1.63,1.84,1.11,2.97-5.09,11.2-12.91,21.11-22.62,28.66-16,12.45-36.02,17.91-56.36,15.37s-38.4-12.75-50.85-28.75Z"/><circle class="cls-1" cx="154.65" cy="99.47" r="2.39"/><path class="cls-2" d="m107.24,127.04h14.75c.43,0,.78-.35.78-.78v-4.34c0-3.54-.25-7.11-.74-10.61l-3.47-24.76s0-.05-.01-.08c-.79-3.23-3.29-5.74-6.51-6.56-.78-.2-1.62-.4-2.49-.6,0,0-.01,0-.02,0-1.1-.26-2.23-.51-3.35-.77-2.8-.63-5.7-1.29-7.89-1.92-1.69-.49-2.87-2.05-2.87-3.79v-4.06l.38-.43c1.52-1.7,2.54-3.76,2.97-5.98.76-.19,1.67-.73,1.87-1.96.33-2.03.61-3.12.81-3.92.1-.37.18-.69.24-1.01.16-.59,2.75-10.46-2.05-17.43-2.56-3.72-6.74-5.88-12.43-6.42-.08,0-.55-.04-1.28-.02-.06,0-.12,0-.18,0-1.74,0-3.43.31-5.01.91-2.09.7-4.34,1.91-6.15,4.02-.88-.04-2.79.11-4.32,1.79-2.54,2.78-2.73,8.31-.57,16.45.06.6.18,1.08.34,1.71.21.8.49,1.89.81,3.92.2,1.23,1.1,1.77,1.87,1.96.44,2.23,1.46,4.28,2.97,5.98l.38.43v4.06c0,1.75-1.17,3.3-2.85,3.79-2.19.63-5.09,1.29-7.9,1.92-.92.21-1.86.42-2.77.63,0,0,0,0,0,0-1.09.25-2.15.5-3.12.75-3.21.82-5.44,3.92-6.3,6.67h-11.61c-2.48,0-4.5,2.02-4.5,4.5v28.69c0,2.48,2.02,4.5,4.5,4.5h49.74c2.48,0,4.5-2.02,4.5-4.5v-28.69c0-1.46-.71-2.76-1.79-3.58l3.99-9.36c2.22.63,5.09,1.28,7.88,1.91.92.21,1.85.42,2.76.63v40.08c-1.16,1.27-1.93,2.9-2.1,4.71H37.8c-.43,0-.78.35-.78.78s.35.78.78.78h69.44Zm-13.05-35.95v28.69c0,1.62-1.32,2.93-2.93,2.93h-49.74c-1.62,0-2.93-1.32-2.93-2.93v-28.69c0-1.62,1.32-2.93,2.93-2.93h49.74c1.62,0,2.93,1.32,2.93,2.93Zm-10.22-4.5l1.78-1.73,1.78,1.73h-3.57Zm1.78-3.82l-8.16-9.22c.03-.24.05-.48.05-.72v-2.97l4.06,2.46s.06.03.09.05c1.17.52,2.44.79,3.71.79,1.14,0,2.29-.21,3.36-.64.03-.01.06-.02.08-.04l4.92-2.68v3.04c0,.24.02.49.05.72l-8.17,9.22Zm9.97-27.72c-.21-1.44-1.46-2.55-2.96-2.55h-2.82c-1.45,0-2.66,1.04-2.93,2.41-.99-.32-2.07-.32-3.06,0-.27-1.37-1.48-2.41-2.93-2.41h-2.82c-1.48,0-2.71,1.08-2.95,2.49l-1.79-.44,3.18-6.96c3.26,2.76,9.89,6.5,19.39,2.91l1.64,4.35-1.94.21Zm-1.53.44v1.89c0,.79-.64,1.43-1.43,1.43h-2.82c-.79,0-1.43-.64-1.43-1.43v-1.89c0-.79.64-1.43,1.43-1.43h2.82c.79,0,1.43.64,1.43,1.43Zm-11.75,0v1.89c0,.79-.64,1.43-1.43,1.43h-2.82c-.79,0-1.43-.64-1.43-1.43v-1.89c0-.79.64-1.43,1.43-1.43h2.82c.79,0,1.43.64,1.43,1.43Zm-7.64-17.38c.28.05.57-.06.74-.28,4.14-5.15,11.48-4.65,11.54-4.65,5.19.49,8.99,2.42,11.28,5.74,3.71,5.38,2.51,13,2.01,15.4l-1.36-.36-1.8-4.76c-.07-.2-.23-.36-.42-.44-.19-.08-.41-.09-.61,0-9.98,4.12-16.48-.31-19.18-2.89-.06-.08-.13-.15-.21-.21-.73-.73-1.14-1.27-1.21-1.37-.25-.35-.74-.43-1.09-.18-.35.25-.43.74-.18,1.09.02.02.39.53,1.12,1.26l-3.52,7.7-.79-.19c-2.37-9.14-1.15-12.97.3-14.58,1.42-1.57,3.32-1.29,3.39-1.28Zm-.63,23.43c-.06-.39-.38-.68-.78-.67-.05,0-.87,0-.99-.73-.34-2.1-.63-3.23-.84-4.06-.04-.15-.07-.29-.11-.42l3.74.92v.8c0,1.65,1.34,2.99,2.99,2.99h2.82c1.65,0,2.99-1.34,2.99-2.99v-.82c.93-.44,2.02-.44,2.95,0v.82c0,1.65,1.34,2.99,2.99,2.99h2.82c1.65,0,2.99-1.34,2.99-2.99v-.76l4.17-.45c-.21.82-.49,1.94-.82,3.97-.11.69-.85.73-.99.73-.4,0-.72.28-.78.67-.32,2.15-1.25,4.13-2.69,5.75l-.5.56-1.11.61-4.79,2.61c-1.85.72-3.95.68-5.77-.12l-4.1-2.49-1-.61-.5-.56c-1.44-1.62-2.37-3.61-2.69-5.75Zm2.93,13.64l7.65,8.64-2.86,2.77h-3.16l-3.84-9c.97-.56,1.74-1.41,2.22-2.41Zm-11.43,4.88c2.79-.63,5.66-1.28,7.88-1.91l3.6,8.44h-13.66v-6.03c.72-.17,1.46-.33,2.18-.5Zm-5.85,1.37c.66-.17,1.37-.34,2.11-.52v5.67h-7.15c.84-2.25,2.69-4.56,5.04-5.15Zm31.44,5.15h-1.64l-2.86-2.77,7.65-8.64c.48,1,1.25,1.85,2.22,2.41l-3.94,9.23c-.45-.15-.93-.23-1.42-.23Zm23.36,33.08c3.37,0,6.16,2.54,6.55,5.81h-13.09c.39-3.27,3.18-5.81,6.55-5.81Zm2.41-32.86l3.46,24.72c.46,3.28.7,6.62.72,9.94-1.48-2.03-3.88-3.36-6.58-3.36-1.64,0-3.17.49-4.45,1.33v-38.37c.51.12,1.01.25,1.49.37,2.65.68,4.71,2.74,5.37,5.38Z"/><path class="cls-2" d="m66.18,99.52c-3.17,0-5.75,2.58-5.75,5.75s2.58,5.75,5.75,5.75,5.75-2.58,5.75-5.75-2.58-5.75-5.75-5.75Zm0,9.93c-2.31,0-4.18-1.88-4.18-4.18s1.88-4.18,4.18-4.18,4.18,1.88,4.18,4.18-1.88,4.18-4.18,4.18Z"/></svg>