<?xml version="1.0" encoding="UTF-8"?><svg id="Layer_1" xmlns="http://www.w3.org/2000/svg" viewBox="0 0 165.95 163.88"><defs><style>.cls-1{fill:#00b0e2;}.cls-2{fill:#005789;stroke:#005789;stroke-miterlimit:10;stroke-width:2px;}</style></defs><path class="cls-1" d="m74.67,5.37c20.11-2.55,40.11,2.97,56.31,15.53s26.53,30.55,29.07,50.67c2.55,20.11-2.97,40.11-15.53,56.32-12.56,16.2-30.55,26.53-50.67,29.07-18.55,2.35-37.27-2.17-52.71-12.72-1.02-.7-1.29-2.1-.59-3.12.7-1.02,2.1-1.29,3.12-.59,14.53,9.93,32.15,14.18,49.61,11.97,18.92-2.4,35.86-12.12,47.68-27.37,11.83-15.25,17.02-34.08,14.62-53-2.4-18.92-12.12-35.86-27.37-47.68-15.25-11.83-34.08-17.02-53-14.62-18.92,2.4-35.86,12.12-47.68,27.37s-17.02,34.08-14.62,53c1.45,11.48,5.72,22.58,12.34,32.07.71,1.02.46,2.42-.56,3.13-1.02.71-2.42.46-3.13-.56-7.03-10.09-11.56-21.88-13.11-34.08-2.55-20.11,2.97-40.11,15.53-56.32,12.56-16.2,30.55-26.53,50.67-29.07Z"/><circle class="cls-1" cx="31.89" cy="133.57" r="2.39"/><path class="cls-2" d="m108.58,50.05h-7.69v-2.2c0-2.85-2.32-5.17-5.17-5.17s-5.17,2.32-5.17,5.17v2.2h-13.73v-2.2c0-2.85-2.32-5.17-5.17-5.17s-5.17,2.32-5.17,5.17v2.2h-7.69c-5.92,0-10.74,4.82-10.74,10.74v46.59c0,5.92,4.82,10.74,10.74,10.74h49.79c5.92,0,10.74-4.82,10.74-10.74v-46.59c0-5.92-4.82-10.74-10.74-10.74Zm-15.65-2.2c0-1.54,1.25-2.79,2.79-2.79s2.79,1.25,2.79,2.79v7.23c0,1.54-1.25,2.79-2.79,2.79s-2.79-1.25-2.79-2.79v-7.23Zm-24.07,0c0-1.54,1.25-2.79,2.79-2.79s2.79,1.25,2.79,2.79v7.23c0,1.54-1.25,2.79-2.79,2.79s-2.79-1.25-2.79-2.79v-7.23Zm-18.43,12.94c0-4.61,3.75-8.36,8.36-8.36h7.69v2.64c0,2.85,2.32,5.17,5.17,5.17s5.17-2.32,5.17-5.17v-2.64h13.73v2.64c0,2.85,2.32,5.17,5.17,5.17s5.17-2.32,5.17-5.17v-2.64h7.69c4.61,0,8.36,3.75,8.36,8.36v4.05H50.43v-4.05Zm66.51,46.59c0,4.61-3.75,8.36-8.36,8.36h-49.79c-4.61,0-8.36-3.75-8.36-8.36v-40.16h66.51v40.16Z"/><path class="cls-2" d="m59.58,88.47h7.02c2.41,0,4.38-1.96,4.38-4.37v-4.95c0-2.41-1.96-4.37-4.38-4.37h-7.02c-2.41,0-4.38,1.96-4.38,4.37v4.95c0,2.41,1.96,4.37,4.38,4.37Zm-1.99-9.33c0-1.1.89-1.99,1.99-1.99h7.02c1.1,0,1.99.89,1.99,1.99v4.95c0,1.1-.89,1.99-1.99,1.99h-7.02c-1.1,0-1.99-.89-1.99-1.99v-4.95Z"/><path class="cls-2" d="m59.58,108.19h7.02c2.41,0,4.38-1.96,4.38-4.37v-4.95c0-2.41-1.96-4.37-4.38-4.37h-7.02c-2.41,0-4.38,1.96-4.38,4.37v4.95c0,2.41,1.96,4.37,4.38,4.37Zm-1.99-9.33c0-1.1.89-1.99,1.99-1.99h7.02c1.1,0,1.99.89,1.99,1.99v4.95c0,1.1-.89,1.99-1.99,1.99h-7.02c-1.1,0-1.99-.89-1.99-1.99v-4.95Z"/><path class="cls-2" d="m79.37,88.47h7.02c2.41,0,4.37-1.96,4.37-4.37v-4.95c0-2.41-1.96-4.37-4.37-4.37h-7.02c-2.41,0-4.37,1.96-4.37,4.37v4.95c0,2.41,1.96,4.37,4.37,4.37Zm-1.99-9.33c0-1.1.89-1.99,1.99-1.99h7.02c1.1,0,1.99.89,1.99,1.99v4.95c0,1.1-.89,1.99-1.99,1.99h-7.02c-1.1,0-1.99-.89-1.99-1.99v-4.95Z"/><path class="cls-2" d="m79.37,108.19h7.02c2.41,0,4.37-1.96,4.37-4.37v-4.95c0-2.41-1.96-4.37-4.37-4.37h-7.02c-2.41,0-4.37,1.96-4.37,4.37v4.95c0,2.41,1.96,4.37,4.37,4.37Zm-1.99-9.33c0-1.1.89-1.99,1.99-1.99h7.02c1.1,0,1.99.89,1.99,1.99v4.95c0,1.1-.89,1.99-1.99,1.99h-7.02c-1.1,0-1.99-.89-1.99-1.99v-4.95Z"/><path class="cls-2" d="m99.16,88.47h7.02c2.41,0,4.38-1.96,4.38-4.37v-4.95c0-2.41-1.96-4.37-4.38-4.37h-7.02c-2.41,0-4.38,1.96-4.38,4.37v4.95c0,2.41,1.96,4.37,4.38,4.37Zm-1.99-9.33c0-1.1.89-1.99,1.99-1.99h7.02c1.1,0,1.99.89,1.99,1.99v4.95c0,1.1-.89,1.99-1.99,1.99h-7.02c-1.1,0-1.99-.89-1.99-1.99v-4.95Z"/><path class="cls-2" d="m107.81,93.89l-7.34,8.61-3.71-3.25c-.49-.43-1.25-.39-1.68.11-.43.49-.38,1.25.11,1.68l4.62,4.05c.22.19.5.3.78.3.03,0,.06,0,.09,0,.32-.02.61-.17.82-.41l8.12-9.52c.43-.5.37-1.25-.13-1.68-.5-.42-1.25-.37-1.68.13Z"/></svg>