<?xml version="1.0" encoding="UTF-8"?><svg id="Layer_1" xmlns="http://www.w3.org/2000/svg" viewBox="0 0 167.37 163.88"><defs><style>.cls-1{fill:#00b0e2;}.cls-2{fill:#005789;stroke:#005789;stroke-miterlimit:10;stroke-width:1.5px;}</style></defs><path class="cls-1" d="m147.98,38.3c11.37,16.78,15.51,37.11,11.64,57.24s-15.24,37.48-32.02,48.86c-16.78,11.37-37.11,15.51-57.24,11.64-20.13-3.87-37.48-15.24-48.86-32.02-10.49-15.48-14.94-34.21-12.51-52.76.16-1.23,1.29-2.1,2.52-1.94,1.23.16,2.1,1.29,1.94,2.52-2.28,17.45,1.9,35.09,11.78,49.66,10.7,15.79,27.03,26.49,45.99,30.13,18.95,3.64,38.09-.25,53.88-10.95,15.79-10.7,26.49-27.03,30.13-45.99,3.64-18.95-.25-38.09-10.95-53.88-10.7-15.79-27.03-26.49-45.99-30.13-18.95-3.64-38.09.25-53.88,10.95-9.58,6.49-17.54,15.32-23.02,25.52-.59,1.09-1.95,1.5-3.04.92-1.09-.58-1.5-1.95-.92-3.04,5.82-10.84,14.27-20.21,24.45-27.11C58.66,6.55,78.99,2.41,99.12,6.28c20.13,3.87,37.48,15.24,48.86,32.02Z"/><circle class="cls-1" cx="14.3" cy="58.18" r="2.39"/><path class="cls-2" d="m73.75,63.1h-5.62v-1.61c0-2.08-1.69-3.78-3.78-3.78s-3.78,1.69-3.78,3.78v1.61h-10.03v-1.61c0-2.08-1.69-3.78-3.78-3.78s-3.78,1.69-3.78,3.78v1.61h-5.62c-4.33,0-7.85,3.52-7.85,7.85v34.03c0,4.33,3.52,7.85,7.85,7.85h36.37c4.33,0,7.85-3.52,7.85-7.85v-34.03c0-4.33-3.52-7.85-7.85-7.85Zm-11.43-1.61c0-1.12.91-2.04,2.04-2.04s2.04.91,2.04,2.04v5.28c0,1.12-.91,2.04-2.04,2.04s-2.04-.91-2.04-2.04v-5.28Zm-17.58,0c0-1.12.91-2.04,2.04-2.04s2.04.91,2.04,2.04v5.28c0,1.12-.91,2.04-2.04,2.04s-2.04-.91-2.04-2.04v-5.28Zm-13.46,9.45c0-3.37,2.74-6.11,6.11-6.11h5.62v1.93c0,2.08,1.69,3.78,3.78,3.78s3.78-1.69,3.78-3.78v-1.93h10.03v1.93c0,2.08,1.69,3.78,3.78,3.78s3.78-1.69,3.78-3.78v-1.93h5.62c3.37,0,6.11,2.74,6.11,6.11v2.95H31.27v-2.95Zm48.58,34.03c0,3.37-2.74,6.11-6.11,6.11h-36.37c-3.37,0-6.11-2.74-6.11-6.11v-29.34h48.58v29.34Z"/><path class="cls-2" d="m37.96,91.16h5.13c1.76,0,3.2-1.43,3.2-3.2v-3.62c0-1.76-1.43-3.2-3.2-3.2h-5.13c-1.76,0-3.2,1.43-3.2,3.2v3.62c0,1.76,1.43,3.2,3.2,3.2Zm-1.46-6.81c0-.8.65-1.46,1.46-1.46h5.13c.8,0,1.46.65,1.46,1.46v3.62c0,.8-.65,1.46-1.46,1.46h-5.13c-.8,0-1.46-.65-1.46-1.46v-3.62Z"/><path class="cls-2" d="m37.96,105.57h5.13c1.76,0,3.2-1.43,3.2-3.2v-3.62c0-1.76-1.43-3.19-3.2-3.19h-5.13c-1.76,0-3.2,1.43-3.2,3.19v3.62c0,1.76,1.43,3.2,3.2,3.2Zm-1.46-6.81c0-.8.65-1.45,1.46-1.45h5.13c.8,0,1.46.65,1.46,1.45v3.62c0,.8-.65,1.46-1.46,1.46h-5.13c-.8,0-1.46-.65-1.46-1.46v-3.62Z"/><path class="cls-2" d="m52.42,91.16h5.13c1.76,0,3.19-1.43,3.19-3.2v-3.62c0-1.76-1.43-3.2-3.19-3.2h-5.13c-1.76,0-3.19,1.43-3.19,3.2v3.62c0,1.76,1.43,3.2,3.19,3.2Zm-1.45-6.81c0-.8.65-1.46,1.45-1.46h5.13c.8,0,1.45.65,1.45,1.46v3.62c0,.8-.65,1.46-1.45,1.46h-5.13c-.8,0-1.45-.65-1.45-1.46v-3.62Z"/><path class="cls-2" d="m52.42,105.57h5.13c1.76,0,3.19-1.43,3.19-3.2v-3.62c0-1.76-1.43-3.19-3.19-3.19h-5.13c-1.76,0-3.19,1.43-3.19,3.19v3.62c0,1.76,1.43,3.2,3.19,3.2Zm-1.45-6.81c0-.8.65-1.45,1.45-1.45h5.13c.8,0,1.45.65,1.45,1.45v3.62c0,.8-.65,1.46-1.45,1.46h-5.13c-.8,0-1.45-.65-1.45-1.46v-3.62Z"/><path class="cls-2" d="m66.87,91.16h5.13c1.76,0,3.2-1.43,3.2-3.2v-3.62c0-1.76-1.43-3.2-3.2-3.2h-5.13c-1.76,0-3.2,1.43-3.2,3.2v3.62c0,1.76,1.43,3.2,3.2,3.2Zm-1.46-6.81c0-.8.65-1.46,1.46-1.46h5.13c.8,0,1.46.65,1.46,1.46v3.62c0,.8-.65,1.46-1.46,1.46h-5.13c-.8,0-1.46-.65-1.46-1.46v-3.62Z"/><path class="cls-2" d="m73.19,95.12l-5.36,6.29-2.71-2.37c-.36-.32-.91-.28-1.23.08-.32.36-.28.91.08,1.23l3.37,2.96c.16.14.36.22.57.22.02,0,.04,0,.06,0,.23-.02.45-.13.6-.3l5.93-6.96c.31-.37.27-.91-.1-1.23-.36-.31-.91-.27-1.23.1Z"/><path class="cls-2" d="m69.84,111.73s0,.01,0,.02c0,.02-.02.1-.02.12,0,0,0,.01,0,.02,0,.01,0,.02,0,.03,0,.02,0,.04,0,.07,0,.02,0,.04.01.06,0,.02.01.04.02.06,0,.02.02.04.02.06,0,.02.02.03.03.05.01.02.02.03.03.05.01.01.02.03.04.04.01.01.03.03.04.04.01.01.03.02.04.04.02.01.03.02.05.03.02,0,.03.02.05.03.02.01.04.02.07.03,0,0,.02,0,.03.01,0,0,0,0,.01,0,.05.01.1.02.15.02h0l68.81-.04s.02,0,.02,0c.02,0,.04,0,.06,0,.02,0,.04,0,.06-.01,0,0,.02,0,.02,0,.01,0,.02,0,.03-.01.02,0,.04-.02.06-.02.02,0,.03-.02.05-.03.02-.01.03-.02.05-.03.02-.01.03-.02.05-.04.01-.01.03-.03.04-.04.01-.01.03-.03.04-.05.01-.02.02-.03.03-.05.01-.02.02-.03.03-.05,0-.02.02-.04.02-.05,0-.02.01-.04.02-.06,0-.02,0-.04.01-.05,0-.02,0-.04,0-.07,0-.01,0-.02,0-.03,0,0,0-.02,0-.02,0-.02,0-.04,0-.06,0-.02,0-.04-.01-.06,0,0,0-.02,0-.02l-4.73-16.07c-.71-2.91-2.97-5.18-5.89-5.92-1.83-.47-4.2-.88-6.49-1.29-1.53-.27-3.1-.55-4.5-.84-.05-.04-.1-.07-.15-.09l-3.74-1.34-1.29-2.29c-.02-.15-.03-.3-.03-.45v-3.75l.38-.42c1.39-1.56,2.32-3.44,2.71-5.48.68-.15,1.52-.62,1.7-1.72.3-1.86.56-2.86.75-3.59.21-.81.35-1.35.35-2.32,0-1.19-.29-1.96-.87-2.3-.07-.04-.16-.08-.27-.11.8-2.55,1.32-4.94,1.55-7.12.57-5.34-2.29-10.55-7.12-12.96-7.12-3.57-12.74-1.7-13.64-1.36-6.91.16-8.96,6.25-8.98,6.31-.08.24,0,.5.18.66.16.15.39.2.6.13-2.79,6.56-.8,12.17.24,14.39-.04.02-.08.04-.11.06-.58.33-.87,1.1-.87,2.3,0,.97.14,1.51.35,2.32.19.73.45,1.73.75,3.59.18,1.1,1.02,1.57,1.7,1.72.39,2.04,1.32,3.93,2.71,5.48l.38.42v3.75c0,1.01-.42,1.95-1.1,2.63,0,0-.01,0-.02,0l-3.87,1.51s-.08.04-.11.06c-1.52.37-3.19.75-4.83,1.12-1.84.41-3.74.84-5.36,1.25l.3,1.18c1.6-.41,3.5-.83,5.33-1.25,1.35-.3,2.72-.61,4.01-.92l-.61,2.1c-.07.23,0,.48.19.63l1.27,1.06-1.98,1.38c-.22.15-.31.43-.23.69l3.32,9.96,2.45,6.46h-23.04m30.2-28.26s.04.02.07.03c.98.39,2.01.58,3.05.58,1.15,0,2.3-.24,3.37-.71.02-.01.05-.02.07-.04l3.81-2.36v2.88c0,.11,0,.22.01.33l-7.55,4.89-7.55-4.89c0-.11.01-.22.01-.33v-2.95l4.71,2.56Zm5.47,28.25l.45-11.03s0-.09-.01-.14l-.88-4.69.91-2.63,2.76,2.34c.11.09.25.14.39.14.05,0,.09,0,.14-.02.19-.04.34-.18.42-.35l2.1-4.96-.43,11.23-2.24,10.1h-3.6Zm-8.91,0l-2.23-10.03-.43-11.26,2.1,4.92c.08.18.23.31.42.35.05.01.09.02.14.02.14,0,.28-.05.39-.14l2.73-2.31.9,2.6-.88,4.69s-.01.09-.01.14l.45,11.03h-3.59Zm-5.91-18.91l-1.57-1.31.71-2.48,2.8-1.09.53,13.86s0,.07.01.11l2.18,9.82h-1.19s-2.61-6.87-2.61-6.87l-3.17-9.5,2.26-1.57c.16-.11.25-.28.26-.47s-.07-.37-.22-.49Zm12.17-2.21l2.12,1.8-.97,2.82h-2.32l-.97-2.79,2.14-1.82Zm13.75.81l-1.58,1.32c-.15.12-.23.3-.22.49s.1.36.26.47l2.26,1.57-3.16,9.48-2.64,6.97h-1.17s2.2-9.89,2.2-9.89c0-.04.01-.07.01-.11l.53-13.77,2.87,1.03.65,2.44Zm-7.73,2.7l-5.01-4.25,6.97-4.51.99,1.77-2.95,6.99Zm-7.94,6.6l.81-4.29h2.18l.81,4.29-.45,11.01h-2.89s-.45-11.01-.45-11.01Zm-5.9-15.25l6.8,4.4-5.01,4.25-2.92-6.83c.5-.52.89-1.14,1.13-1.82Zm32.46,5.86c2.48.63,4.4,2.56,5.01,5.06l4.51,15.32h-24.21s2.49-6.54,2.49-6.54l3.31-9.93c.09-.26,0-.54-.23-.69l-1.98-1.38,1.27-1.06c.18-.15.26-.39.2-.62l-.57-2.11c1.21.24,2.51.47,3.79.69,2.27.4,4.61.81,6.4,1.27Zm-36.67-42.48c.13-.24.09-.53-.1-.73-.16-.17-.39-.24-.61-.18,1-1.59,3.15-3.91,7.17-3.96.08,0,.16-.02.24-.05.05-.02,5.6-2.29,12.71,1.27,4.36,2.18,6.94,6.89,6.43,11.7-.22,2.03-.7,4.26-1.43,6.65-.47-2.15-1.38-4.98-3.01-5.81-.1-1.71-.85-3.33-2.12-4.5-1.37-1.27-3.23-1.89-5.09-1.72l-12.71,1.18c-.28.03-.51.24-.56.52l-1.74,9.62c-1.04-2.65-2.35-8.05.83-13.99Zm1.31,24.71c-.04-.3-.3-.52-.6-.52h0s-.89,0-1.02-.76c-.31-1.91-.58-2.95-.77-3.7-.2-.77-.31-1.2-.31-2.02,0-.93.2-1.22.26-1.24.01,0,.09,0,.22.07.14.09.31.14.48.11.26-.05.46-.25.5-.51l2-11.09,12.23-1.13c1.51-.14,3.01.37,4.12,1.39,1.11,1.03,1.74,2.48,1.72,4,0,.29.19.55.47.62,1.59.41,2.66,4.78,2.96,7.44.03.29.26.52.55.56.02,0,.05,0,.07,0,.26,0,.5-.16.59-.42.13-.35.24-.7.36-1.04.02,0,.03,0,.04,0,.05.03.26.32.26,1.24,0,.82-.11,1.24-.31,2.02-.2.75-.46,1.79-.77,3.7-.12.72-.87.76-1.02.76-.31,0-.56.22-.61.52-.29,1.98-1.16,3.82-2.49,5.31l-.5.56-4.6,2.85c-1.71.75-3.67.79-5.41.11l-5.47-2.97-.48-.54c-1.34-1.49-2.2-3.33-2.49-5.31Z"/></svg>