<?xml version="1.0" encoding="UTF-8"?><svg id="Layer_1" xmlns="http://www.w3.org/2000/svg" viewBox="0 0 167.37 163.88"><defs><style>.cls-1{fill:#005789;}.cls-2{fill:#00b0e2;}</style></defs><path class="cls-2" d="m144.59,127.43c-12.28,16.13-30.23,26.53-50.54,29.29-20.31,2.75-40.39-2.49-56.52-14.77-16.13-12.28-26.53-30.23-29.29-50.54-2.75-20.31,2.49-40.39,14.77-56.52,11.33-14.88,27.67-25.07,46.01-28.68,1.22-.24,2.4.55,2.64,1.77.24,1.22-.55,2.4-1.77,2.64-17.27,3.4-32.65,12.99-43.31,27-11.55,15.18-16.49,34.07-13.89,53.2,2.59,19.13,12.38,36.02,27.56,47.57,15.18,11.55,34.07,16.49,53.2,13.89,19.13-2.59,36.02-12.38,47.57-27.56,11.55-15.18,16.49-34.07,13.89-53.2-2.59-19.13-12.38-36.02-27.56-47.57-9.21-7.01-20.11-11.74-31.53-13.68-1.22-.21-2.05-1.37-1.84-2.59.21-1.22,1.37-2.05,2.59-1.84,12.13,2.06,23.71,7.08,33.49,14.53,16.13,12.28,26.53,30.23,29.29,50.54,2.75,20.31-2.49,40.39-14.77,56.52Z"/><circle class="cls-2" cx="83.12" cy="7.07" r="2.39"/><circle class="cls-1" cx="122.99" cy="94.83" r="1.96"/><circle class="cls-1" cx="122.99" cy="102.69" r="1.96"/><path class="cls-1" d="m73.88,98.76c-1.18,0-1.96.79-1.96,1.96v15.72c0,1.18.79,1.96,1.96,1.96s1.96-.79,1.96-1.96v-15.72c0-1.18-.79-1.96-1.96-1.96Z"/><path class="cls-1" d="m105.31,98.76c-1.18,0-1.96.79-1.96,1.96v15.72c0,1.18.79,1.96,1.96,1.96s1.96-.79,1.96-1.96v-15.72c0-1.18-.79-1.96-1.96-1.96Z"/><path class="cls-1" d="m81.73,98.76c-1.18,0-1.96.79-1.96,1.96v15.72c0,1.18.79,1.96,1.96,1.96s1.96-.79,1.96-1.96v-15.72c0-1.18-.79-1.96-1.96-1.96Z"/><circle class="cls-1" cx="89.59" cy="67.32" r="1.96"/><circle class="cls-1" cx="97.45" cy="67.32" r="1.96"/><path class="cls-1" d="m62.09,35.89h-1.96c-1.18,0-1.96.79-1.96,1.96v15.72c0,2.36.79,4.32,2.16,6.09-1.77.2-3.34.79-4.91,1.77-3.14-2.55-6.88-3.93-11-3.93-1.57,0-3.14.2-4.52.59-.98.2-1.57,1.38-1.38,2.36s1.38,1.77,2.36,1.38c1.18-.39,2.36-.39,3.54-.39,7.66,0,13.75,6.09,13.75,13.75v3.93c0,1.96-.59,3.73-1.77,5.5-1.38-.79-2.95-1.18-4.52-1.38,1.38-1.57,2.16-3.73,2.16-6.09,0-.98-.79-1.96-1.77-1.96-3.14-.39-5.7-2.75-6.09-6.09.2-.98-.79-1.77-1.77-1.77h-1.96c-4.32,0-7.86,3.54-7.86,7.86v1.96c0,2.16.79,4.32,2.16,6.09-2.16.39-4.32,1.18-6.09,2.36v-10.41c0-3.73,1.57-7.27,4.13-9.82.79-.79.79-1.96,0-2.75s-1.96-.79-2.75,0c-3.34,3.34-5.3,7.66-5.3,12.57v14.54c-1.18,2.16-1.96,4.52-1.96,7.07v19.65c0,1.18.79,1.96,1.96,1.96s1.96-.79,1.96-1.96v-11.79h3.93v11.79c0,1.18.79,1.96,1.96,1.96s1.96-.79,1.96-1.96v-19.65c0-1.18-.79-1.96-1.96-1.96s-1.96.79-1.96,1.96v3.93h-3.93v-3.93c0-5.5,4.32-9.82,9.82-9.82v1.77c0,.39,0,.59.2.79l3.93,7.86c.39.59.98,1.18,1.77,1.18h0c.79,0,1.38-.39,1.77-.98l3.93-7.86c.2-.2.2-.59.2-.98v-1.77c5.5,0,9.82,4.32,9.82,9.82v3.93h-3.93v-3.93c0-1.18-.79-1.96-1.96-1.96s-1.96.79-1.96,1.96v19.65c0,1.18.79,1.96,1.96,1.96s1.96-.79,1.96-1.96v-11.79h3.93v11.79c0,1.18.79,1.96,1.96,1.96s1.96-.79,1.96-1.96v-19.65c0-3.93-1.77-7.47-4.32-10.02,1.57-2.36,2.36-4.91,2.36-7.66v-3.93c0-4.13-1.38-7.86-3.93-11,1.18-.59,2.55-.79,3.93-.79v1.77c0,.59.2.98.59,1.38l2.16,2.16c-.59.59-.79,1.38-.98,2.16l-1.57,9.82c0,.59,0,.98.39,1.38l4.13,5.89c.39.59.98.79,1.57.79h0c.59,0,1.18-.39,1.57-.98l3.73-5.89c.2-.39.39-.98.2-1.38l-1.57-9.82c-.2-.79-.59-1.57-.98-2.16l2.16-2.16c.39-.39.59-.79.59-1.38v-1.57c.59,0,1.18,0,1.77.2.98,1.77,2.36,3.14,4.13,4.13v1.57c0,3.93,1.57,7.47,4.32,10.02-.59,0-1.38.2-1.96.39-6.29,1.57-10.41,6.88-10.41,13.16,0,1.18.79,1.96,1.96,1.96s1.96-.79,1.96-1.96c0-3.73,2.16-7.07,5.5-8.84l2.55,9.23c.2.59.59.98,1.18,1.38,0,.2.39.2.59.2.39,0,.59,0,.79-.2l3.34-1.57-.59,1.38c-.98,2.55-1.57,5.3-1.57,8.25v2.75c0,2.55.98,5.11,2.75,6.88l1.57,1.57c.39.39.79.59,1.38.59h0c.59,0,.98-.2,1.38-.59l1.57-1.57c1.96-1.77,2.95-4.32,2.95-7.07v-2.75c0-2.75-.59-5.3-1.57-7.86l-.59-1.57,3.14,1.57c.59.2.79.2,1.18.2.2,0,.59,0,.79-.2.59-.2.98-.79,1.18-1.38l2.55-9.23c3.34,1.57,5.5,4.91,5.5,8.84v23.58c0,1.18.79,1.96,1.96,1.96s1.96-.79,1.96-1.96v-23.58c0-3.14-1.18-6.09-2.95-8.45,1.57-.79,3.14-1.38,4.91-1.38v1.77c0,.59.2.98.59,1.38l3.93,3.93c.39.39.79.59,1.38.59h0c.59,0,.98-.2,1.38-.59l3.93-3.93c.39-.39.59-.79.59-1.38v-1.77c5.5,0,9.82,4.32,9.82,9.82v3.93h-3.93v-3.93c0-1.18-.79-1.96-1.96-1.96s-1.96.79-1.96,1.96v15.72c0,1.18.79,1.96,1.96,1.96s1.96-.79,1.96-1.96v-7.86h3.93v7.86c0,1.18.79,1.96,1.96,1.96s1.96-.79,1.96-1.96v-15.72c0-6.88-5.3-12.77-11.98-13.56,1.38-1.57,2.16-3.73,2.16-6.09v-5.89c0-1.18-.79-1.96-1.96-1.96-1.96,0-3.93-.79-5.3-2.16l-1.18-1.18c-.79-.79-1.96-.79-2.75,0l-1.18,1.18c-1.57,1.38-3.54,2.16-5.5,2.16-.59,0-.98.2-1.38.59.98-1.96,1.38-4.13,1.38-6.48v-1.38c2.36-1.57,5.11-2.55,7.86-2.55,7.66,0,13.75,6.09,13.75,13.75v7.86c0,1.18.79,1.96,1.96,1.96s1.96-.79,1.96-1.96v-7.86c0-9.82-7.86-17.68-17.68-17.68-3.14,0-6.09.79-8.84,2.36-.59-1.57-1.57-3.14-2.55-4.52-.79-.79-1.96-.98-2.75-.2s-.98,1.96-.2,2.75c1.77,2.16,2.75,4.72,2.75,7.47,0,3.54-1.57,6.68-4.13,9.04-.59-.79-1.18-1.18-1.96-1.18-1.18,0-1.96.79-1.96,1.96,0,5.5-4.32,9.82-9.82,9.82s-9.82-4.32-9.82-9.82v-5.11l4.91-5.5c2.95,2.95,7.66,4.72,12.77,4.72,1.57,0,2.95-.2,4.32-.39.98-.2,1.77-1.38,1.57-2.36-.2-.98-1.18-1.77-2.36-1.57-1.18.2-2.36.39-3.54.39-4.72,0-9.04-1.96-11-4.91-.2-.59-.79-.98-1.38-.98s-1.18.2-1.57.59l-7.07,7.86c-.2.2-.39.39-.39.79-.59-.59-.98-1.18-1.18-1.77,0,0,0-.2-.2-.2-.59-.98-.79-2.16-.79-3.34,0-4.32,3.54-7.86,7.86-7.86,1.38,0,2.55.39,3.93.98.79.39,1.57.39,2.16-.2,3.14-2.55,7.27-3.54,11.2-2.36.98.39,2.16-.2,2.36-1.38.39-.98-.2-2.16-1.38-2.36-4.72-1.38-9.82-.59-13.75,2.16-1.38-.39-2.95-.79-4.52-.79-2.95,0-5.7,1.18-7.86,2.95v-2.95c0-4.72-3.34-8.64-7.86-9.63m-23.58,52.26l-1.96,3.93-1.96-3.93v-1.57c.59.2,1.38.2,1.96.2h.98c.39,0,.59-.2.98-.2v1.57Zm1.18-6.29h0c-.79.59-1.77.79-2.55.98-1.77.2-3.34-.39-4.52-1.57-1.18-1.18-1.96-2.75-1.96-4.32v-1.96c0-2.16,1.77-3.93,3.93-3.93h.39c.98,3.54,3.73,6.29,7.27,7.47-.39,1.38-1.38,2.55-2.55,3.34Zm77.41,1.96l-1.96,1.96-1.96-1.96v-1.18c.59.2,1.38.2,1.96.2s1.38,0,1.96-.2v1.18Zm-7.86-14.93c2.16-.39,4.32-1.38,5.89-2.95,1.57,1.57,3.73,2.55,5.89,2.95v4.13c0,3.34-2.55,5.89-5.89,5.89s-5.89-2.55-5.89-5.89v-4.13Zm-10.41,4.32h0c2.95-1.57,5.11-3.73,6.68-6.48v6.29c0,2.36.79,4.32,2.16,6.09-2.16.2-4.32,1.18-6.09,2.36-1.38-.98-2.75-1.57-4.32-1.96h0c-.59-.2-1.18-.2-1.96-.39,1.57-1.77,2.75-3.73,3.54-5.89Zm-5.7,9.63h.98l-1.77,6.88-3.54-1.77,4.32-5.11Zm-5.5,22.2c0,1.57-.59,3.14-1.77,4.13l-.2.39-.2-.2c-1.18-1.18-1.77-2.55-1.77-4.13v-2.75c0-2.36.39-4.52,1.38-6.68l.79-1.77.79,1.77c.79,1.96,1.18,4.13,1.18,6.48v2.75h-.2Zm-1.96-22.2c.79,0,1.77,0,2.55-.2l-2.55,2.95-2.55-3.14c.79.39,1.77.39,2.55.39Zm-7.86,0h.39l4.32,5.3-3.54,1.77-1.77-7.07h.59Zm-17.49.39l-1.96-2.75,1.57-9.04c0-.39.59-.39.79,0l1.57,9.04-1.96,2.75Zm1.77-19.06l-1.96,1.96-1.96-1.96v-1.18c.59.2,1.38.2,1.96.2s1.38,0,1.96-.2v1.18Zm3.93-10.81c0,3.34-2.55,5.89-5.89,5.89s-5.89-2.55-5.89-5.89v-5.89h11.79v5.89Zm-.39-9.82h-11.4v-3.93h5.89c2.55,0,4.72,1.57,5.5,3.93Z"/></svg>