<?xml version="1.0" encoding="UTF-8"?><svg id="Layer_1" xmlns="http://www.w3.org/2000/svg" viewBox="0 0 166.37 166.21"><defs><style>.cls-1{fill:#00b0e2;}.cls-2{fill:#005789;stroke:#005789;stroke-miterlimit:10;}</style></defs><path class="cls-1" d="m83.36,161.22c-20.27,0-39.42-7.98-53.92-22.48-14.5-14.5-22.48-33.64-22.48-53.92s7.98-39.42,22.48-53.92c14.5-14.5,33.64-22.48,53.92-22.48,18.7,0,36.7,6.83,50.69,19.24.93.82,1.01,2.24.19,3.17-.82.93-2.24,1.01-3.17.19-13.17-11.68-30.11-18.11-47.71-18.11-19.07,0-37.1,7.52-50.74,21.16-13.65,13.65-21.16,31.67-21.16,50.74s7.52,37.1,21.16,50.74,31.67,21.16,50.74,21.16,37.1-7.52,50.74-21.16,21.16-31.67,21.16-50.74c0-11.58-2.84-23.11-8.21-33.37-.58-1.1-.15-2.46.95-3.03,1.1-.58,2.45-.15,3.03.95,5.71,10.89,8.72,23.15,8.72,35.45,0,20.27-7.98,39.42-22.48,53.92-14.5,14.5-33.64,22.48-53.92,22.48Z"/><circle class="cls-1" cx="141.91" cy="39.41" r="2.39"/><path class="cls-2" d="m83.44,135.97c27.7,0,50.15-22.45,50.15-50.15,0-8.14-1.98-16.17-5.78-23.37-.47-.87-1.56-1.19-2.43-.72-.86.47-1.19,1.54-.74,2.4,3.53,6.69,5.37,14.13,5.36,21.69-2.55,61.77-90.59,61.77-93.14,0-.43-34.54,37.97-57.68,68.26-41.21.87.46,1.96.13,2.42-.74s.13-1.96-.74-2.42c-7.2-3.8-15.23-5.78-23.37-5.78-66.52,2.75-66.52,97.55,0,100.3Z"/><path class="cls-2" d="m83.44,71.49c1.55,0,3.09.26,4.56.76.94.32,1.95-.17,2.28-1.11.79-3.17-4.79-3.04-6.83-3.23-23.76.98-23.76,34.84,0,35.82,9.89-.01,17.9-8.02,17.91-17.91-.18-2.08-.06-7.6-3.22-6.82-.93.32-1.43,1.34-1.11,2.27,0,0,0,0,0,0,.5,1.46.75,3,.74,4.54-.72,18.98-27.94,18.98-28.66,0,0-7.91,6.42-14.32,14.33-14.33Z"/><path class="cls-2" d="m100.59,58.48c.48-.86.17-1.95-.7-2.43,0,0,0,0,0,0-5.04-2.79-10.7-4.25-16.45-4.25-45.14,1.87-45.14,66.2,0,68.06,18.78.01,34.02-15.21,34.03-33.99,0-5.77-1.46-11.44-4.25-16.49-.48-.87-1.57-1.18-2.43-.71-.87.48-1.18,1.57-.71,2.43,0,0,0,0,0,.01,11.35,19.69-3.9,45.56-26.64,45.16-16.81-.02-30.43-13.64-30.45-30.45-.39-22.75,25.47-38,45.16-26.64.86.48,1.95.17,2.43-.69,0,0,0,0,0,0Z"/><path class="cls-2" d="m104.08,53.4l.66,8.59-22.56,22.56c-.68.71-.66,1.85.05,2.53.69.67,1.79.67,2.48,0l22.56-22.56,8.59.66c.52.04,1.03-.15,1.4-.52l13.04-13.04c.69-.71.68-1.86-.04-2.55-.3-.29-.68-.46-1.09-.5l-7.88-.6-.6-7.88c-.09-.99-.97-1.72-1.96-1.63-.41.04-.8.21-1.09.5l-13.04,13.04c-.37.37-.56.88-.52,1.4Zm13.33-9.15c.72,8.34-.69,6.87,7.6,7.6l-9.7,9.7-7.06-.54-.54-7.06,9.7-9.7Z"/></svg>