<?xml version="1.0" encoding="UTF-8"?><svg id="Layer_1" xmlns="http://www.w3.org/2000/svg" viewBox="0 0 165.41 166.21"><defs><style>.cls-1{fill:#00b0e2;}.cls-2{fill:#005789;stroke:#005789;stroke-miterlimit:10;}</style></defs><path class="cls-1" d="m23,131.74c-12.45-16-17.91-36.01-15.37-56.36,2.54-20.34,12.75-38.4,28.75-50.85,16-12.45,36.01-17.91,56.36-15.37,20.34,2.54,38.4,12.75,50.85,28.75,11.48,14.76,17.15,33.16,15.95,51.82-.08,1.24-1.15,2.18-2.38,2.1-1.24-.08-2.18-1.15-2.1-2.38,1.13-17.56-4.2-34.89-15.01-48.78-11.71-15.05-28.71-24.66-47.87-27.05-19.15-2.39-37.99,2.75-53.04,14.46-15.05,11.71-24.66,28.71-27.05,47.87s2.75,37.99,14.46,53.04c11.71,15.05,28.71,24.66,47.87,27.05,19.15,2.39,37.99-2.75,53.04-14.46,9.14-7.11,16.5-16.44,21.29-26.97.51-1.13,1.84-1.63,2.97-1.11,1.13.51,1.63,1.84,1.11,2.97-5.09,11.2-12.91,21.11-22.62,28.66-16,12.45-36.02,17.91-56.36,15.37s-38.4-12.75-50.85-28.75Z"/><circle class="cls-1" cx="155.09" cy="103.13" r="2.39"/><path class="cls-2" d="m83.89,43.46c-1.88,1.94-1.88,5.09,0,7.03l6.74,6.96c-.6.25-1.14.63-1.61,1.11-1.9,1.97-1.9,5.16,0,7.13l6.59,6.8c3.71,3.83,9.34,6.21,14.06,6.21.6,0,1.19-.04,1.76-.12.52,2.36.79,4.79.79,7.24,0,.86.7,1.56,1.56,1.56s1.56-.7,1.56-1.56c0-3.22-.42-6.42-1.25-9.5-.22-.83-1.08-1.33-1.92-1.1-.02,0-.04.02-.06.02h0c-4.03,1.25-10.43-.96-14.27-4.93l-6.59-6.8c-.74-.77-.74-2.01,0-2.78.69-.71,1.86-.71,2.55,0l6.57,6.78.02.02c.6.62,1.59.63,2.21.04.62-.6.64-1.59.04-2.21l-16.51-17.05c-.7-.73-.7-1.95,0-2.68.66-.68,1.8-.68,2.46,0l12.94,13.36c.6.62,1.59.64,2.21.04.62-.6.64-1.59.04-2.21l-14.45-14.92c-.7-.73-.7-1.95,0-2.68.66-.68,1.8-.68,2.46,0l14.45,14.92c.31.32.72.48,1.12.48s.78-.15,1.09-.44c.62-.6.64-1.59.04-2.21l-12.94-13.36c-.7-.73-.7-1.95,0-2.68.66-.68,1.8-.68,2.46,0l12.94,13.36c.6.62,1.59.63,2.21.04.62-.6.64-1.59.04-2.21l-8.39-8.66c-.7-.72-.68-1.91.03-2.65.66-.68,1.78-.7,2.43-.03l11.96,12.35c8.7,8.98,5.88,14.09,5.87,14.11h0c-.28.44-.34,1-.1,1.51,3.25,6.91,4.9,14.34,4.9,22.08,0,.86.7,1.56,1.56,1.56s1.56-.7,1.56-1.56c0-7.96-1.65-15.61-4.89-22.75.82-2.15,1.91-8.28-6.66-17.13l-11.96-12.35c-.91-.94-2.13-1.46-3.43-1.46s-2.56.53-3.49,1.49c-.43.45-.76.96-1,1.51l-1.34-1.39c-.92-.95-2.16-1.48-3.47-1.48s-2.55.52-3.47,1.48c-.58.6-.98,1.31-1.2,2.07-.49-.17-1-.25-1.54-.25-1.32,0-2.55.52-3.47,1.48-1.35,1.39-1.72,3.4-1.14,5.15-.77.24-1.48.67-2.06,1.27Z"/><path class="cls-2" d="m134.79,106.47c-.45-.43-.96-.76-1.51-1l1.39-1.34c.95-.92,1.48-2.16,1.48-3.47s-.52-2.55-1.48-3.47c-.6-.58-1.31-.98-2.07-1.2.16-.49.25-1,.25-1.54,0-1.32-.52-2.55-1.48-3.47-1.39-1.35-3.4-1.72-5.15-1.14-.24-.77-.67-1.48-1.27-2.06-1.94-1.88-5.09-1.88-7.03,0l-6.96,6.74c-.25-.6-.63-1.14-1.11-1.61-1.96-1.9-5.16-1.9-7.13,0l-6.8,6.59c-4.32,4.19-6.78,10.8-6.08,15.82-2.37.52-4.8.79-7.25.79-.86,0-1.56.7-1.56,1.56s.7,1.56,1.56,1.56c3.22,0,6.42-.42,9.5-1.25.83-.22,1.33-1.08,1.1-1.92-1.25-4.03.94-10.49,4.91-14.33l6.8-6.59c.77-.74,2.01-.74,2.78,0,.35.34.55.8.55,1.28s-.19.91-.53,1.25l-6.82,6.61c-.62.6-.64,1.59-.04,2.21.6.62,1.59.63,2.21.04l17.05-16.51c.73-.7,1.95-.7,2.68,0,.34.33.53.77.53,1.23s-.19.9-.53,1.23l-13.36,12.94c-.62.6-.64,1.59-.04,2.21.6.62,1.59.64,2.21.04l14.92-14.45c.73-.7,1.95-.7,2.68,0,.34.33.53.77.53,1.23s-.19.9-.53,1.23l-14.92,14.45c-.62.6-.64,1.59-.04,2.21.6.62,1.59.64,2.21.04l13.36-12.95c.73-.7,1.95-.7,2.68,0,.34.33.53.76.53,1.23s-.19.9-.53,1.23l-13.36,12.94c-.62.6-.64,1.59-.04,2.21.31.32.72.48,1.12.48s.78-.15,1.09-.44l8.66-8.39s0,0,0,0c.72-.7,1.91-.69,2.65.03.35.34.54.78.54,1.24s-.18.87-.51,1.18l-12.35,11.96c-8.98,8.7-14.09,5.88-14.11,5.87h0c-.44-.28-1-.33-1.51-.1-6.91,3.25-14.34,4.9-22.08,4.9-.86,0-1.56.7-1.56,1.56s.7,1.56,1.56,1.56c7.96,0,15.61-1.65,22.75-4.9.68.26,1.76.54,3.19.54,3.11,0,7.89-1.34,13.94-7.2l12.35-11.96c.94-.91,1.46-2.13,1.46-3.43s-.53-2.56-1.49-3.49Z"/><path class="cls-2" d="m81.31,128.19c1.88-1.94,1.88-5.09,0-7.03l-6.74-6.96c.6-.25,1.14-.63,1.61-1.11,1.9-1.97,1.9-5.16,0-7.13l-6.59-6.8c-4.19-4.32-10.8-6.78-15.82-6.08-.52-2.37-.79-4.8-.79-7.25,0-.86-.7-1.56-1.56-1.56s-1.56.7-1.56,1.56c0,3.22.44,6.47,1.26,9.55.26.82,1.13,1.29,1.96,1.03,4.03-1.25,10.43.96,14.27,4.92l6.59,6.8c.74.77.74,2.01,0,2.78-.68.7-1.85.71-2.54.02l-6.59-6.8-.02-.02c-.6-.62-1.59-.64-2.21-.04-.62.6-.64,1.59-.04,2.21l16.51,17.05c.7.73.7,1.95,0,2.68-.66.68-1.8.68-2.46,0l-12.94-13.36c-.6-.62-1.59-.64-2.21-.04-.62.6-.64,1.59-.04,2.21l14.45,14.92c.7.73.7,1.95,0,2.68-.66.68-1.8.68-2.46,0l-14.45-14.92c-.6-.62-1.59-.64-2.21-.04-.62.6-.64,1.59-.04,2.21l12.95,13.36c.7.73.7,1.95,0,2.68-.66.68-1.8.68-2.46,0l-12.94-13.36c-.6-.62-1.59-.64-2.21-.04-.62.6-.64,1.59-.04,2.21l8.39,8.66c.7.72.69,1.91-.03,2.65-.66.68-1.78.7-2.43.03l-11.96-12.35c-8.7-8.98-5.88-14.09-5.87-14.11h0c.28-.44.34-1,.1-1.51-3.25-6.91-4.9-14.34-4.9-22.08,0-.86-.7-1.56-1.56-1.56s-1.56.7-1.56,1.56c0,7.96,1.65,15.61,4.9,22.75-.82,2.15-1.91,8.28,6.66,17.13l11.96,12.35c.91.94,2.13,1.46,3.43,1.46h0c1.32,0,2.56-.53,3.49-1.49.43-.45.76-.96,1-1.51l1.34,1.39c.92.95,2.16,1.48,3.47,1.48s2.55-.52,3.47-1.48c.58-.6.98-1.31,1.2-2.07.49.16,1,.25,1.54.25,1.32,0,2.55-.52,3.47-1.48,1.35-1.39,1.72-3.4,1.14-5.15.77-.24,1.48-.67,2.06-1.27Z"/><path class="cls-2" d="m32.35,77.2c0,1.32.52,2.55,1.48,3.48.97.94,2.24,1.41,3.52,1.41.55,0,1.1-.09,1.63-.27.24.77.67,1.48,1.27,2.06.97.94,2.24,1.41,3.52,1.41s2.55-.47,3.52-1.41l6.96-6.74c.25.6.63,1.14,1.11,1.61,1.97,1.9,5.16,1.9,7.13,0l6.8-6.59c4.32-4.19,6.78-10.8,6.08-15.82,2.37-.52,4.8-.79,7.25-.79.86,0,1.56-.7,1.56-1.56s-.7-1.56-1.56-1.56c-3.22,0-6.42.42-9.5,1.25-.83.22-1.33,1.08-1.1,1.92,1.25,4.03-.94,10.49-4.91,14.33l-6.8,6.59c-.77.74-2.01.74-2.78,0-.36-.34-.55-.8-.55-1.28s.2-.93.55-1.28l6.79-6.57.02-.02c.62-.6.64-1.59.04-2.21-.6-.62-1.59-.64-2.21-.04l-17.05,16.51c-.73.7-1.95.7-2.68,0-.34-.33-.53-.77-.53-1.23s.19-.9.53-1.23l13.36-12.94c.62-.6.64-1.59.04-2.21-.6-.62-1.59-.64-2.21-.04l-14.92,14.45c-.73.7-1.95.7-2.68,0-.34-.33-.53-.77-.53-1.23s.19-.9.53-1.23l14.92-14.45c.62-.6.64-1.59.04-2.21-.6-.62-1.59-.64-2.21-.04l-13.36,12.95c-.73.7-1.95.7-2.68,0-.34-.33-.53-.77-.53-1.23s.19-.9.53-1.23l13.36-12.94c.62-.6.64-1.59.04-2.21-.6-.62-1.59-.64-2.21-.04l-8.66,8.39c-.72.7-1.91.68-2.65-.03-.35-.34-.54-.78-.54-1.24s.18-.87.51-1.18l12.35-11.96c8.98-8.7,14.09-5.88,14.11-5.87h0c.25.16.54.25.84.25.22,0,.45-.05.66-.15,6.91-3.25,14.34-4.9,22.08-4.9.86,0,1.56-.7,1.56-1.56s-.7-1.56-1.56-1.56c-7.96,0-15.61,1.65-22.75,4.89-2.15-.82-8.28-1.91-17.13,6.66l-12.35,11.96c-.94.91-1.46,2.13-1.46,3.43s.53,2.56,1.49,3.49c.45.43.96.76,1.51,1l-1.39,1.34c-.95.92-1.48,2.16-1.48,3.47s.52,2.55,1.48,3.47c.6.58,1.31.98,2.07,1.2-.16.49-.25,1-.25,1.53Z"/></svg>