<?xml version="1.0" encoding="UTF-8"?><svg id="Layer_1" xmlns="http://www.w3.org/2000/svg" viewBox="0 0 165.95 166.21"><defs><style>.cls-1{fill:#00b0e2;}.cls-2{fill:none;stroke:#005789;stroke-linecap:round;stroke-linejoin:round;stroke-width:4px;}</style></defs><path class="cls-1" d="m21.98,39.14c12.12-16.25,29.97-26.82,50.26-29.78,20.29-2.95,40.41,2.1,56.66,14.22,16.25,12.12,26.82,29.97,29.78,50.26,2.95,20.29-2.1,40.41-14.22,56.66-11.18,14.99-27.42,25.33-45.73,29.13-1.21.25-2.4-.53-2.65-1.74-.25-1.21.53-2.4,1.74-2.65,17.23-3.57,32.52-13.31,43.04-27.41,11.41-15.29,16.16-34.23,13.38-53.33-2.78-19.1-12.73-35.9-28.02-47.31-15.29-11.41-34.23-16.16-53.33-13.38-19.1,2.78-35.9,12.73-47.31,28.02-11.41,15.29-16.16,34.23-13.38,53.33,2.78,19.1,12.73,35.9,28.02,47.31,9.28,6.92,20.23,11.55,31.66,13.37,1.22.2,2.06,1.35,1.86,2.57-.19,1.22-1.35,2.06-2.57,1.86-12.15-1.94-23.78-6.85-33.63-14.21-16.25-12.12-26.83-29.97-29.78-50.26-2.95-20.29,2.1-40.41,14.22-56.66Z"/><circle class="cls-1" cx="84.61" cy="158.91" r="2.39"/><path class="cls-2" d="m61.42,56.77h-14.45c-2.29,0-4.15,1.86-4.15,4.15v48.66h78.1v-48.66c0-2.29-1.86-4.15-4.15-4.15h-26.34c-.07,0-.13-.06-.13-.13v-14.84"/><path class="cls-2" d="m129.06,120.81H35.39c-1.37,0-2.06-1.67-1.09-2.65l8.52-8.59h78.1l9.18,8.55c1.03.96.36,2.69-1.05,2.69Z"/><path class="cls-2" d="m62.07,41.79h28.12c.07,0,.15.03.2.08l14.72,14.72c.05.05.08.12.08.2v41.16c0,.36-.29.65-.65.65h-42.47c-.36,0-.65-.29-.65-.65v-55.51c0-.36.29-.65.65-.65Z"/><line class="cls-2" x1="83.3" y1="69.09" x2="97.58" y2="69.09"/><line class="cls-2" x1="68.73" y1="77.95" x2="97.58" y2="77.95"/><line class="cls-2" x1="68.73" y1="86.62" x2="97.58" y2="86.62"/><rect class="cls-2" x="68.73" y="50.55" width="9.25" height="18.54"/></svg>