<?xml version="1.0" encoding="UTF-8"?><svg id="Layer_1" xmlns="http://www.w3.org/2000/svg" viewBox="0 0 170.23 166.21"><defs><style>.cls-1{fill:#005789;}.cls-2{fill:#00b0e2;}.cls-3{fill:none;fill-rule:evenodd;stroke:#005789;stroke-linecap:round;stroke-linejoin:round;stroke-width:4px;}</style></defs><path class="cls-2" d="m77.83,9.03c20.11-2.55,40.11,2.97,56.31,15.53s26.53,30.55,29.07,50.67c2.55,20.11-2.97,40.11-15.53,56.32-12.56,16.2-30.55,26.53-50.67,29.07-18.55,2.35-37.27-2.17-52.71-12.72-1.02-.7-1.29-2.1-.59-3.12.7-1.02,2.1-1.29,3.12-.59,14.53,9.93,32.15,14.18,49.61,11.97,18.92-2.4,35.86-12.12,47.68-27.37,11.83-15.25,17.02-34.08,14.62-53-2.4-18.92-12.12-35.86-27.37-47.68-15.25-11.83-34.08-17.02-53-14.62-18.92,2.4-35.86,12.12-47.68,27.37s-17.02,34.08-14.62,53c1.45,11.48,5.72,22.58,12.34,32.07.71,1.02.46,2.42-.56,3.13-1.02.71-2.42.46-3.13-.56-7.03-10.09-11.56-21.88-13.11-34.08-2.55-20.11,2.97-40.11,15.53-56.32,12.56-16.2,30.55-26.53,50.67-29.07Z"/><circle class="cls-2" cx="35.05" cy="137.23" r="2.39"/><path class="cls-3" d="m118.35,57.96h-63.03c-5.92,0-10.71,4.8-10.71,10.72v26.79c0,5.92,4.8,10.72,10.05,10.72h16.75c6.73,0,11.18,10.62,15.1,10.62s9.1-10.62,15.13-10.62h16.71c5.92,0,10.72-4.8,10.72-10.72v-26.79c0-5.92-4.8-10.72-10.72-10.72Z"/><path class="cls-1" d="m86.84,68.81c-4.17,0-7.55,3.38-7.55,7.54s3.38,7.54,7.55,7.54,7.55-3.38,7.55-7.54-3.38-7.54-7.55-7.54h0Z"/><path class="cls-1" d="m73.64,95.24c-.36,0-.63-.28-.63-.62v-1.75c-.01-3.56,1.92-6.46,5.48-6.46h16.71c3.56,0,5.49,2.89,5.49,6.45v1.75c0,.35-.28.63-.63.63h-26.42Z"/></svg>