<!DOCTYPE svg PUBLIC "-//W3C//DTD SVG 1.1//EN" "http://www.w3.org/Graphics/SVG/1.1/DTD/svg11.dtd">
<!-- Uploaded to: SVG Repo, www.svgrepo.com, Transformed by: SVG Repo Mixer Tools -->
<svg fill="#000000" width="256px" height="256px" viewBox="0 0 24 24" id="pin-drop" data-name="Flat Color" xmlns="http://www.w3.org/2000/svg" class="icon flat-color" stroke="#000000" stroke-width="0.00024000000000000003">
<g id="SVGRepo_bgCarrier" stroke-width="0"/>
<g id="SVGRepo_tracerCarrier" stroke-linecap="round" stroke-linejoin="round"/>
<g id="SVGRepo_iconCarrier">
<path id="primary" d="M12,2A6,6,0,0,0,6,8c0,4.36,5.08,9.49,5.29,9.71a1,1,0,0,0,1.42,0C12.92,17.49,18,12.36,18,8A6,6,0,0,0,12,2Z" style="fill: #00b2e3;"/>
<path id="secondary" d="M12,22c-2.85,0-5-1.29-5-3a1.85,1.85,0,0,1,.15-.74A1,1,0,1,1,9,19c0,.18,1,1,3,1s3-.8,3-1a1,1,0,0,1,.54-1.3,1,1,0,0,1,1.31.56A1.85,1.85,0,0,1,17,19C17,20.71,14.85,22,12,22ZM12,6.5A1.5,1.5,0,1,0,13.5,8,1.5,1.5,0,0,0,12,6.5Z" style="fill: #ffffff;"/>
</g>
</svg>